<svg width="191" height="50" fill="none" xmlns="http://www.w3.org/2000/svg"><path d="M12.706 1.313L0 38.537h7.473l3.587-10.868H21.37l3.692 10.868h7.63L19.969 1.313h-7.262zm6.86 20.178h-6.685l2.782-8.208c.193-.56.368-1.12.525-1.662.175.56.35 1.137.56 1.732l2.818 8.138zM45.24 21.596c-3.43-1.365-3.816-1.995-3.816-2.993 0-1.26 1.05-2.03 2.748-2.03 2.013 0 3.588.805 4.34 1.278l1.47.927 1.943-5.915-.875-.56c-1.68-1.103-4.218-1.75-6.79-1.75-5.74 0-9.906 3.623-9.906 8.628 0 4.603 4.078 7.053 7.49 8.295 3.413 1.278 3.676 2.153 3.676 3.238 0 2.03-2.135 2.328-3.413 2.328-1.978 0-4.095-.84-5.303-1.558l-1.452-.858-1.908 6.003.928.543c2.082 1.225 4.882 1.925 7.648 1.925 6.317 0 10.57-3.553 10.57-8.838 0-5.303-4.218-7.49-7.35-8.663zM63.808 4.638L56.703 6.79v4.253h-3.85v6.125h3.85v12.18c0 3.396.682 5.829 2.1 7.421 1.383 1.505 3.465 2.345 5.863 2.345 2.152 0 3.71-.437 4.445-.7l.962-.332-.367-6.16-1.645.49c-.49.14-1.05.245-2.223.245-.857 0-2.03 0-2.03-3.466V17.168h6.458v-6.125h-6.458V4.638zM87.592 10.798l-1.295-.175c-.385-.053-.77-.105-1.278-.105-2.24 0-4.323.927-5.898 2.538l-.087-2.013h-6.685l.087 1.435c.14 2.118.21 4.55.21 7.648v18.41h7.21v-14.56c0-.682.053-1.365.123-1.855.525-2.853 2.328-4.638 4.725-4.638.56 0 .928 0 1.243.07l1.645.35v-7.105zM100.735 10.536c-8.033 0-13.65 5.95-13.65 14.473 0 8.313 5.442 14.105 13.23 14.105 6.598 0 13.703-4.55 13.703-14.525.018-8.278-5.46-14.053-13.283-14.053zm5.985 14.21c0 4.795-2.59 8.278-6.178 8.278-3.552 0-6.125-3.448-6.125-8.173 0-3.062 1.313-8.225 6.23-8.225 4.796-.018 6.073 5.303 6.073 8.12zM137.662 4.27c-2.363-2.135-5.933-3.22-10.588-3.22-3.115 0-6.073.228-8.786.683l-1.12.192v36.612h7.158V24.939c.735.07 1.505.087 2.24.087 4.83 0 8.926-1.487 11.516-4.2 2.03-2.083 3.045-4.883 3.045-8.313 0-3.325-1.225-6.248-3.465-8.243zm-3.693 8.488c0 5.198-4.585 5.985-7.315 5.985-.91 0-1.68-.035-2.328-.122V7.438c.7-.088 1.645-.14 2.853-.14 3.097 0 6.79.945 6.79 5.46zM163.056 31.256v-9.275c0-7.385-3.833-11.446-10.781-11.446-3.22 0-6.563.876-8.908 2.363l-.91.56 1.943 5.723 1.47-.998c1.487-1.015 3.64-1.61 5.757-1.61 1.453-.017 2.521.315 3.203.998.578.577.928 1.417 1.033 2.52-5.618.157-9.731 1.505-12.251 4.008-1.733 1.732-2.625 3.937-2.625 6.563 0 4.217 3.063 8.47 8.943 8.47 2.502 0 4.865-.805 6.703-2.205l.192 1.645h6.826l-.245-1.558c-.228-1.522-.35-3.447-.35-5.758zm-12.006 1.82c-1.068 0-2.853-.384-2.853-2.94 0-.997.298-1.767.928-2.38.84-.822 2.712-1.767 6.878-1.855v2.958c0 .21-.018.612-.14.997-.49 1.47-2.065 3.22-4.813 3.22zM182.884 11.043l-5.233 15.453c-.14.385-.262.788-.385 1.19-.14-.385-.262-.752-.402-1.102l-5.706-15.54h-7.857l9.853 24.693.035.07c.157.315.21.507.227.577-.052.14-.157.385-.227.543-.858 1.82-2.118 3.517-3.396 4.533l-.035.035c-1.435 1.225-2.905 1.767-3.482 1.942l-1.26.403 1.855 6.16 1.19-.21c.717-.123 3.272-.735 6.195-3.185 3.5-3.098 5.828-8.033 8.873-16.048l7.455-19.514h-7.7zM26.304 11.55c4.638-4.742 12.513-7.56 21.053-7.56 3.325 0 6.58.42 9.643 1.278l.245.07 5.478-1.663-2.45-.945C55.618.945 50.227 0 44.697 0c-8.033 0-15.523 1.943-21.106 5.46l-.595.385 2.31 6.756.998-1.05z" fill="#656777"/></svg>