<svg width="128" height="50" fill="none" xmlns="http://www.w3.org/2000/svg">
    <path d="M42.706.076c2.542 0 4.515.528 5.995 1.586 1.442 1.057 2.163 2.681 2.201 4.834 0 1.058-.227 2.115-.72 3.06a4.298 4.298 0 01-2.012 2.002v.15a5.698 5.698 0 012.429 2.116c.379.566.645 1.17.834 1.813a7.2 7.2 0 01.304 2.379 7.565 7.565 0 01-.721 3.437c-.455.982-1.176 1.813-2.011 2.455a8.525 8.525 0 01-2.922 1.473c-1.1.34-2.277.491-3.415.491H28.779V0h13.927v.076zm-7.248 9.517h6.11a2.685 2.685 0 002.048-.642c.38-.415.608-.982.57-1.548 0-.529-.19-1.058-.57-1.473a2.733 2.733 0 00-2.049-.642h-6.11v4.305zm0 11.105h6.185c.949.075 1.897-.19 2.618-.794a2.777 2.777 0 00.76-2.077 2.69 2.69 0 00-.911-2.266 3.895 3.895 0 00-2.467-.755h-6.185v5.892zM57.933 26.017h-7.06L60.058 0h6.834l9.415 26.017h-7.44l-1.254-4.526h-8.39l-1.29 4.526zM63.438 6.81h-.152l-2.695 9.661h5.505L63.438 6.81zM84.124 10.635h-.15v15.382h-6.648V0h7.365l8.8 14.509h.152V0h6.648v26.017h-6.686l-9.48-15.382zM109.636 0v9.116L118.189 0h8.819l-10.492 9.913 11.1 16.104h-8.401l-7.679-11.546-1.939 1.861v9.685h-6.69V0h6.729zM13.954 29.942v4.356H9.439v15.266H4.66V34.298H.145v-4.356h13.809zM25.552 29.942c.68 0 1.399.151 2.004.417a4.148 4.148 0 011.588 1.212 5.38 5.38 0 011.021 1.818c.265.72.378 1.477.378 2.235.038 1.136-.264 2.235-.832 3.22a5.472 5.472 0 01-2.306 2.045l3.554 8.675h-5.105l-2.95-7.993h-3.857v7.993h-4.803V29.942h11.308zm-1.438 7.538c.454.038.908-.151 1.173-.53.265-.341.378-.758.378-1.175 0-.189-.038-.416-.076-.606-.037-.189-.151-.378-.264-.568a1.795 1.795 0 00-.492-.416c-.227-.114-.454-.19-.719-.152h-5.03v3.447h5.03z"
          fill="#656777"/>
    <path d="M34.743 49.564H29.65l6.611-19.622h4.94l6.763 19.622h-5.357l-.912-3.41h-6.041l-.912 3.41zm3.99-14.47h-.077l-1.938 7.273h3.952l-1.938-7.273zM52.883 37.973h-.113v11.591h-4.805V29.942h5.296l6.356 10.947h.113V29.942h4.805v19.622h-4.842l-6.81-11.591zM72.795 49.994a9.898 9.898 0 01-3.152-.416 8.02 8.02 0 01-2.28-1.136c-.607-.492-1.139-1.06-1.519-1.78-.38-.719-.683-1.476-.873-2.233l4.596-1.855c.038.984.418 1.893 1.101 2.574a3.723 3.723 0 002.545.871c.266 0 .532-.038.797-.076.266-.038.494-.113.722-.265.228-.113.38-.303.532-.53.152-.227.228-.53.228-.795s-.038-.53-.114-.795c-.114-.265-.266-.492-.456-.644a3.703 3.703 0 00-.912-.568c-.493-.227-.987-.378-1.48-.53a26.865 26.865 0 01-3.077-1.098 8.884 8.884 0 01-2.203-1.362 5.1 5.1 0 01-1.33-1.78 6.294 6.294 0 01-.455-2.347c0-.871.19-1.742.57-2.499.38-.72.911-1.363 1.595-1.855a6.965 6.965 0 012.392-1.136 11.726 11.726 0 013.039-.379c.911 0 1.861.076 2.735.303a6.45 6.45 0 012.013.909c.57.379 1.063.87 1.443 1.439.418.643.722 1.287.988 2.006l-4.14 1.818a3.857 3.857 0 00-1.064-1.97 3.547 3.547 0 00-3.76-.113 1.486 1.486 0 00-.57 1.06c0 .265.038.492.152.72.114.227.304.454.532.605.304.228.645.417 1.025.53.57.228 1.102.38 1.671.53.912.266 1.824.53 2.621.796.76.265 1.482.643 2.127 1.135a5.435 5.435 0 011.444 1.78c.38.87.57 1.855.531 2.801.038.947-.19 1.856-.608 2.726-.417.758-.987 1.44-1.709 1.931-.76.53-1.633.947-2.544 1.174a9.224 9.224 0 01-3.153.454zM85.912 37.215h7.456v4.356h-7.456v7.993h-4.807V29.942H95.64v4.356h-9.728v2.917zM96.076 29.942h14.417v4.348h-9.649v2.646h8.448v4.348h-8.448v3.932h9.912v4.348h-14.68V29.942zM122.499 29.942c.681 0 1.399.151 2.004.417a4.15 4.15 0 011.589 1.212c.454.53.794 1.136 1.021 1.818a6.45 6.45 0 01.378 2.235c.038 1.136-.265 2.235-.832 3.22a5.467 5.467 0 01-2.307 2.045l3.555 8.675h-5.105l-2.95-7.993h-3.857v7.993h-4.803V29.942h11.307zm-1.437 7.538a1.29 1.29 0 001.172-.53c.265-.341.379-.758.379-1.175 0-.189-.038-.416-.076-.606-.038-.189-.151-.378-.265-.568a1.784 1.784 0 00-.491-.416c-.227-.114-.454-.19-.719-.152h-5.03v3.447h5.03zM26.163 0H0v5.233h26.163V0zM26.163 9.884H0v5.232h26.163V9.884zM26.163 20.785H0v5.232h26.163v-5.232z"
          fill="#656777"/>
</svg>