<svg width="66" height="24" viewBox="0 0 66 24" fill="none" xmlns="http://www.w3.org/2000/svg">
<path d="M27.244 10.2348V1.26372H30.3231C31.1373 1.21275 31.9516 1.41664 32.6387 1.90088C33.1985 2.33414 33.4784 3.02227 33.4275 3.73588C33.4275 4.11817 33.3003 4.52595 33.0967 4.83178C32.8423 5.18859 32.5115 5.44345 32.1298 5.59636C32.5878 5.69831 32.9695 5.95317 33.2494 6.33546C33.5293 6.71775 33.6565 7.20199 33.6565 7.66074C33.7074 8.39984 33.4021 9.11345 32.8423 9.59768C32.1806 10.0819 31.3409 10.3368 30.5266 10.2858L27.244 10.2348ZM28.8472 5.01018H30.3739C30.7811 5.03567 31.1882 4.90824 31.519 4.67886C31.799 4.44949 31.9516 4.09268 31.9262 3.73588C31.9516 3.37907 31.8244 3.02227 31.5445 2.7674C31.2137 2.53803 30.7811 2.43609 30.3739 2.46157H28.8472V5.01018ZM28.8472 6.15706V8.98602H30.5775C30.9847 9.0115 31.4173 8.88407 31.7226 8.62921C32.0025 8.37435 32.1552 7.99206 32.1298 7.60977C32.1807 7.20199 32.0534 6.8197 31.7735 6.53935C31.4936 6.259 31.0864 6.13157 30.7047 6.18254H28.8472V6.15706Z" fill="#4F535E"/>
<path d="M34.984 1.84607C34.984 1.64218 35.0603 1.41281 35.213 1.25989C35.5693 0.954059 36.1037 0.954059 36.4599 1.25989C36.7653 1.59121 36.7653 2.10093 36.4599 2.40677C36.1037 2.7126 35.5693 2.7126 35.213 2.40677C35.0603 2.27934 34.984 2.07545 34.984 1.84607ZM36.5871 10.3075H35.0858V3.60462H36.5871V10.3075Z" fill="#4F535E"/>
<path fill-rule="evenodd" clip-rule="evenodd" d="M40.1964 1.97742V3.58304H41.3924V4.67895H40.1964V8.42541C40.1709 8.62929 40.2473 8.8077 40.3491 8.96061C40.5017 9.08804 40.6799 9.1645 40.8834 9.13902C41.0616 9.1645 41.2397 9.1645 41.4178 9.13902V10.2349C41.087 10.3369 40.7562 10.3878 40.4254 10.3878C39.2803 10.3878 38.695 9.75068 38.695 8.47638V4.70443H37.6008V3.60853H38.695V2.0029L40.1964 1.97742Z" fill="#4F535E"/>
<path fill-rule="evenodd" clip-rule="evenodd" d="M45.2856 9.21544C45.6165 9.24093 45.9473 9.1135 46.2272 8.88412C46.4816 8.68023 46.6089 8.3744 46.6343 8.06857H48.0593C48.0339 8.47634 47.9066 8.88412 47.6522 9.24093C47.3977 9.59773 47.0669 9.90357 46.6598 10.1075C46.2526 10.3113 45.7691 10.4133 45.3111 10.4133C44.4714 10.4388 43.6571 10.1329 43.0972 9.52128C42.5374 8.83315 42.2321 7.94114 42.283 7.02364V6.87072C42.2321 5.9787 42.5374 5.11218 43.0972 4.42405C43.6825 3.76141 44.5223 3.43009 45.4129 3.48106C46.1254 3.45558 46.8124 3.71044 47.3468 4.19468C47.8558 4.65343 48.1611 5.31607 48.1357 6.02968H46.7107C46.7107 5.67287 46.558 5.34155 46.329 5.08669C46.0745 4.83183 45.7437 4.67891 45.3874 4.7044C44.9548 4.67891 44.5223 4.8828 44.2678 5.23961C43.9624 5.72384 43.8352 6.28454 43.8606 6.84523V7.07461C43.8352 7.6353 43.9624 8.196 44.2423 8.68023C44.4714 8.98607 44.8531 9.18996 45.2856 9.21544Z" fill="#4F535E"/>
<path d="M48.8737 6.89623C48.8737 6.28456 49.0009 5.67289 49.2554 5.1122C49.4844 4.60248 49.8661 4.1947 50.3496 3.91435C50.833 3.634 51.3929 3.48109 51.9527 3.48109C52.767 3.4556 53.5813 3.76143 54.1411 4.3731C54.7264 5.01025 55.0572 5.82581 55.0572 6.69234V7.04914C55.0572 7.66081 54.9299 8.27248 54.6755 8.80769C54.4465 9.31741 54.0648 9.75067 53.6067 10.031C53.1232 10.3114 52.5634 10.4643 52.0036 10.4388C51.1384 10.4898 50.3241 10.133 49.7388 9.49581C49.1536 8.80768 48.8482 7.94116 48.8737 7.04914V6.89623ZM50.375 7.02366C50.3496 7.58435 50.5022 8.14505 50.7822 8.62928C51.0621 9.01157 51.4947 9.21546 51.9781 9.21546C52.4616 9.24095 52.8942 9.01157 53.1741 8.62928C53.5049 8.11956 53.6576 7.50789 53.6067 6.89623C53.6322 6.33553 53.4795 5.77484 53.1741 5.2906C52.8942 4.90831 52.4616 4.67893 51.9781 4.70442C51.5201 4.70442 51.0875 4.90831 50.8076 5.2906C50.5022 5.80032 50.3496 6.41199 50.375 7.02366Z" fill="#4F535E"/>
<path d="M56.3804 1.84998C56.3804 1.64609 56.4567 1.4422 56.5839 1.2638C56.7621 1.11088 56.9911 1.03442 57.2201 1.03442C57.4491 1.00893 57.6781 1.11088 57.8563 1.2638C58.1616 1.59512 58.1616 2.10484 57.8563 2.41067C57.6781 2.56359 57.4491 2.64005 57.2201 2.64005C56.9911 2.64005 56.7621 2.56359 56.5839 2.41067C56.4567 2.28324 56.3804 2.05387 56.3804 1.84998ZM57.9835 10.3114H56.4822V3.60852H57.9835V10.3114Z" fill="#4F535E"/>
<path fill-rule="evenodd" clip-rule="evenodd" d="M61.0117 3.60854V4.37312C61.4952 3.78694 62.2332 3.45562 62.9966 3.48111C64.3961 3.48111 65.0832 4.27118 65.1341 5.8768V10.2349H63.6073V5.95326C63.6327 5.62194 63.5309 5.29062 63.3274 5.01027C63.0983 4.7809 62.7675 4.67895 62.4367 4.70444C61.8515 4.67895 61.3171 5.01027 61.0626 5.52V10.3369H59.5613V3.60854H61.0117Z" fill="#4F535E"/>
<path fill-rule="evenodd" clip-rule="evenodd" d="M34.2278 19.9761C34.2029 20.8221 33.8303 21.6184 33.1844 22.1658C32.5136 22.7132 31.644 22.9869 30.7745 22.9371C30.1286 22.962 29.4826 22.7878 28.9112 22.4395C28.3647 22.116 27.9423 21.6184 27.6939 21.0212C27.3709 20.3494 27.2218 19.6278 27.2467 18.8813V18.0602C27.2218 17.3137 27.3709 16.5672 27.6939 15.8705C27.9672 15.2733 28.3895 14.7508 28.9609 14.4025C29.5323 14.0541 30.1782 13.8799 30.849 13.9048C31.6937 13.855 32.5384 14.1288 33.1844 14.6762C33.8054 15.2485 34.1781 16.0696 34.2278 16.9156H32.6626C32.6378 16.4179 32.439 15.9203 32.1161 15.5471C31.7434 15.2485 31.2714 15.0992 30.7993 15.1241C30.1783 15.0743 29.582 15.348 29.2342 15.8705C28.8615 16.5424 28.6876 17.3137 28.787 18.0851V18.8564C28.7373 19.6278 28.9112 20.3742 29.2839 21.0461C29.6317 21.5686 30.2279 21.8423 30.849 21.7925C31.3211 21.8174 31.8179 21.693 32.1906 21.3944C32.5384 21.0212 32.762 20.5235 32.762 20.0259L34.2278 19.9761Z" fill="#4F535E"/>
<path d="M39.3456 22.7629C39.2711 22.5638 39.1966 22.3647 39.1717 22.1408C38.7245 22.6136 38.1034 22.8624 37.4575 22.8624C36.8861 22.8873 36.3147 22.6633 35.8923 22.2901C35.4948 21.9417 35.2464 21.4441 35.2712 20.9216C35.2464 20.2995 35.5445 19.7272 36.0414 19.354C36.7122 18.931 37.4823 18.7319 38.2525 18.7817H39.1469V18.3587C39.1717 18.0601 39.0723 17.7615 38.8736 17.5375C38.65 17.3136 38.327 17.1892 38.0041 17.2141C37.7059 17.2141 37.4078 17.2887 37.1842 17.4878C36.9855 17.6371 36.8612 17.861 36.8612 18.1098H35.3955C35.3955 17.7366 35.5197 17.3883 35.7433 17.1145C35.9917 16.7911 36.3395 16.5422 36.7122 16.3681C37.1345 16.1939 37.6066 16.0944 38.0786 16.0944C38.7494 16.0695 39.3953 16.2685 39.917 16.6667C40.3642 17.0648 40.6127 17.6371 40.6127 18.2343V21.1704C40.5878 21.6431 40.6623 22.1408 40.8611 22.5887V22.7629H39.3456ZM37.8053 21.7178C38.0786 21.7178 38.3767 21.6431 38.6251 21.5187C38.8736 21.3943 39.0723 21.1953 39.1966 20.9464V19.7023H38.4264C38.0041 19.6774 37.5569 19.777 37.1842 20.0009C36.9109 20.1751 36.7619 20.4737 36.7867 20.7971C36.7867 21.046 36.8861 21.2948 37.06 21.469C37.2587 21.668 37.5072 21.7676 37.7556 21.7924L37.8053 21.7178Z" fill="#4F535E"/>
<path fill-rule="evenodd" clip-rule="evenodd" d="M45.7553 21.046C45.7802 20.7972 45.656 20.5732 45.4324 20.4488C45.1094 20.2747 44.7367 20.1502 44.3641 20.1005C43.9417 20.0009 43.5194 19.8765 43.1219 19.7024C42.4511 19.4784 42.0039 18.8564 42.0288 18.1348C42.0288 17.5625 42.302 17.0399 42.7492 16.7165C43.271 16.3183 43.892 16.1193 44.538 16.1442C45.2088 16.1193 45.8796 16.3183 46.4261 16.7165C46.923 17.0897 47.1963 17.662 47.1714 18.2841H45.7553C45.7553 18.0104 45.656 17.7615 45.4324 17.5873C45.2088 17.3883 44.8858 17.2888 44.5877 17.3136C44.3144 17.3136 44.0411 17.3883 43.8175 17.5376C43.6188 17.662 43.5194 17.8859 43.5194 18.1348C43.5194 18.3338 43.6188 18.5329 43.7927 18.6573C44.1405 18.8315 44.538 18.9808 44.9355 19.0554C45.4075 19.1301 45.8547 19.3042 46.3019 19.5033C46.6 19.6526 46.8485 19.8517 47.0224 20.1254C47.1963 20.3991 47.2708 20.6977 47.2708 21.0211C47.2708 21.5934 46.9975 22.116 46.5255 22.4394C45.9789 22.8375 45.3082 23.0366 44.6125 22.9868C44.1156 22.9868 43.6188 22.9122 43.1716 22.7131C42.7741 22.539 42.4511 22.2652 42.2027 21.9169C41.9791 21.5934 41.8549 21.2202 41.8549 20.8221H43.271C43.271 21.1207 43.42 21.4192 43.6685 21.6183C44.2399 21.9418 44.9355 21.9418 45.5069 21.6183C45.6808 21.469 45.7553 21.2451 45.7553 21.046Z" fill="#4F535E"/>
<path fill-rule="evenodd" clip-rule="evenodd" d="M50.0533 17.0151C50.5005 16.4677 51.1713 16.1691 51.8669 16.194C53.2582 16.194 53.9538 16.9902 54.0035 18.5827V22.7878H52.5377V18.5578C52.5874 18.2094 52.4632 17.8611 52.2396 17.6123C51.9911 17.4132 51.693 17.3137 51.37 17.3385C50.8235 17.3137 50.3017 17.6123 50.0533 18.1099V22.8127H48.5875V13.5813H50.0533V17.0151Z" fill="#4F535E"/>
<path d="M12.1115 15.221C13.1491 15.0175 15.4787 14.5607 15.094 13.0482C14.7514 11.5715 12.5288 12.1579 11.489 12.4323C11.3851 12.4597 11.293 12.484 11.2157 12.5029L11.8839 15.2665C11.9496 15.2528 12.0262 15.2377 12.1115 15.221Z" fill="#4F535E"/>
<path d="M11.1246 11.1641C12.0189 10.9645 13.8741 10.5506 13.5584 9.24392L13.6105 9.21704C13.2697 7.86038 11.4381 8.36511 10.5374 8.61329C10.4469 8.63824 10.3658 8.66059 10.2966 8.6782L10.883 11.2195C10.9511 11.2028 11.0328 11.1846 11.1246 11.1641Z" fill="#4F535E"/>
<path fill-rule="evenodd" clip-rule="evenodd" d="M23.568 9.41655C24.9775 15.599 21.1161 21.744 14.9433 23.1419C8.77046 24.5397 2.62377 20.6611 1.21426 14.4786C-0.19524 8.29621 3.66619 2.15119 9.83902 0.75333C16.0118 -0.644527 22.1585 3.23413 23.568 9.41655ZM12.237 6.685C13.9262 6.44177 15.3459 6.63518 15.8387 8.10051L15.8917 8.1393C16.2711 9.00175 16.0224 9.98983 15.2956 10.5632C15.9246 10.5033 16.5572 10.706 17.0092 11.1341C17.4613 11.5622 17.7319 12.1501 17.7275 12.7807C17.9912 14.761 16.6391 15.657 14.5223 16.2862L15.0367 18.3686L13.742 18.6729L13.3201 16.6419L12.3129 16.864L12.8013 18.9598L11.5326 19.2506L11.0307 17.1287L10.1152 17.3365L8.46731 17.7237L8.35375 16.162L9.16236 15.8109C9.28007 15.7832 9.38429 15.7295 9.46154 15.6235C9.53879 15.5175 9.5765 15.3988 9.54862 15.2809L8.79402 11.9666L8.2364 9.60884C8.10065 9.28206 7.71784 9.11582 7.37821 9.22491C7.39078 9.18536 6.46264 9.43275 6.46264 9.43275L6.12898 8.08375L7.9215 7.72108L8.70589 7.51479L8.20495 5.45847L9.47363 5.16765L9.96108 7.19787L10.9809 6.93626L10.4934 4.90605L11.7621 4.61523L12.237 6.685Z" fill="#4F535E"/>
</svg>
