<svg width="92" height="24" viewBox="0 0 92 24" fill="none" xmlns="http://www.w3.org/2000/svg">
<path d="M29.4865 16.6656V6.02882H32.683C33.5792 5.99952 34.4455 6.23394 35.2222 6.64418C35.9691 7.05441 36.5666 7.66976 36.9549 8.43162C37.3433 9.25209 37.5524 10.1605 37.5225 11.0688V11.6256C37.5524 12.534 37.3433 13.4423 36.8952 14.2628C36.5068 15.0247 35.9093 15.64 35.1625 16.0503C34.3559 16.4605 33.4597 16.6949 32.5635 16.6656H29.4865ZM31.3386 7.49395V15.0833H32.5635C33.4298 15.1419 34.2663 14.7902 34.8339 14.1749C35.4015 13.413 35.7002 12.5047 35.6405 11.567V10.9809C35.7002 10.0433 35.4314 9.10558 34.8936 8.34372C34.326 7.72837 33.5194 7.37674 32.683 7.43534L31.3386 7.49395Z" fill="#4F535E"/>
<path d="M38.8968 12.6218C38.8669 11.8893 39.0462 11.1567 39.3748 10.5121C39.6735 9.92602 40.1216 9.42788 40.6892 9.07625C41.2867 8.72462 41.9439 8.57811 42.631 8.57811C43.6169 8.54881 44.5728 8.90043 45.2599 9.60369C45.9769 10.3363 46.3653 11.3325 46.3653 12.3288V12.7391C46.3653 13.4716 46.2159 14.1749 45.8873 14.8195C45.6184 15.4056 45.1405 15.9037 44.6027 16.2553C44.0052 16.607 43.3181 16.7828 42.631 16.7535C41.6153 16.8121 40.5996 16.4019 39.9125 15.64C39.1955 14.8195 38.8371 13.7646 38.8968 12.6804V12.6218ZM40.7191 12.7977C40.6892 13.4716 40.8685 14.1456 41.227 14.7023C41.5556 15.1419 42.0933 15.4056 42.6609 15.3763C43.2285 15.4056 43.7662 15.1418 44.0949 14.673C44.4832 14.0577 44.6625 13.3544 44.6027 12.6218C44.6326 11.9479 44.4534 11.2739 44.065 10.7172C43.7364 10.2776 43.1986 10.0432 42.6609 10.0432C42.1232 10.0432 41.5855 10.307 41.2568 10.7172C40.8386 11.3618 40.6594 12.0651 40.7191 12.7977Z" fill="#4F535E"/>
<path d="M47.5901 12.6511C47.5304 11.5963 47.859 10.5707 48.4565 9.7209C49.0241 9.01764 49.8904 8.6074 50.7866 8.63671C51.6231 8.6074 52.4297 8.95903 52.9375 9.57438V8.78322H54.5806V16.3432C54.6105 17.2516 54.252 18.16 53.5948 18.7753C52.8479 19.3907 51.9218 19.713 50.936 19.6837C50.3385 19.6837 49.741 19.5665 49.2033 19.3321C48.6954 19.127 48.2473 18.8046 47.9187 18.3651L48.7851 17.3102C49.2631 17.9256 50.0398 18.2772 50.8165 18.2772C51.3243 18.3065 51.8322 18.1307 52.2504 17.8084C52.6388 17.4274 52.818 16.9293 52.7882 16.4018V15.8744C52.2504 16.4605 51.5036 16.7535 50.697 16.7242C49.8008 16.7535 48.9344 16.3432 48.3967 15.64C47.7992 14.7609 47.5005 13.706 47.5901 12.6511ZM49.3825 12.7977C49.3527 13.4423 49.5319 14.1163 49.8904 14.673C50.1891 15.1125 50.7269 15.3763 51.2646 15.347C51.9218 15.347 52.5193 14.9953 52.818 14.4386V10.9809C52.5193 10.4242 51.9218 10.0725 51.2646 10.0725C50.7269 10.0432 50.1891 10.3069 49.8605 10.7465C49.502 11.3911 49.3228 12.0944 49.3825 12.7977Z" fill="#4F535E"/>
<path d="M60.0773 16.7828C59.0317 16.8414 58.016 16.4312 57.299 15.7279C56.5521 14.9661 56.1638 13.9405 56.2235 12.9149V12.7098C56.2235 11.9772 56.3729 11.2447 56.7015 10.6C57.0003 10.014 57.4484 9.51583 57.9861 9.1642C58.5537 8.81257 59.1811 8.63676 59.8682 8.63676C60.8241 8.57815 61.7801 8.95908 62.4074 9.66234C63.0647 10.4828 63.3634 11.5377 63.3037 12.5633V13.2665H58.0458C58.0757 13.8233 58.3147 14.38 58.7031 14.7903C59.0914 15.1712 59.6292 15.3763 60.1669 15.347C60.9735 15.3763 61.7502 15.0247 62.2282 14.38L63.214 15.2884C62.8854 15.7572 62.4373 16.1382 61.9295 16.4019C61.332 16.6656 60.7046 16.8121 60.0773 16.7828ZM59.8682 10.0433C59.42 10.014 58.9719 10.2191 58.6732 10.5414C58.3446 10.9516 58.1355 11.4498 58.0757 11.9772H61.5112V11.8307C61.5112 11.3326 61.332 10.8637 61.0332 10.4828C60.7345 10.1898 60.2864 10.014 59.8682 10.0433Z" fill="#4F535E"/>
<path fill-rule="evenodd" clip-rule="evenodd" d="M67.9939 15.3762C68.4122 15.4055 68.8005 15.259 69.1292 14.9953C69.4279 14.7609 69.6071 14.4092 69.6071 14.0283H71.3099C71.2801 14.5264 71.1307 14.9953 70.832 15.4055C70.5332 15.8451 70.115 16.1967 69.637 16.4311C69.159 16.6655 68.6213 16.7827 68.0836 16.7827C67.0679 16.8413 66.082 16.4604 65.4248 15.7278C64.7078 14.8781 64.3493 13.7939 64.4389 12.7097V12.5339C64.3792 11.479 64.7377 10.4534 65.4248 9.66224C66.1119 8.92968 67.0977 8.54875 68.0836 8.57805C68.9499 8.54875 69.7864 8.84177 70.4436 9.39852C71.0411 9.95527 71.3996 10.7464 71.3996 11.5376H69.6968C69.6968 11.1274 69.5175 10.7171 69.2188 10.4241C68.92 10.1311 68.5018 9.98457 68.0836 9.98457C67.5458 9.95527 67.038 10.1897 66.7392 10.5999C66.3808 11.1567 66.2015 11.8306 66.2613 12.5046V12.7683C66.2015 13.4423 66.3808 14.1162 66.7392 14.673C66.9782 15.1125 67.4562 15.3762 67.9939 15.3762Z" fill="#4F535E"/>
<path d="M72.2958 12.6218C72.2659 11.8893 72.4452 11.1567 72.7738 10.5121C73.0427 9.92601 73.5207 9.42787 74.0883 9.07624C74.6857 8.72461 75.343 8.5488 76.0301 8.5781C77.0159 8.5488 77.9719 8.92973 78.659 9.60369C79.3759 10.3362 79.7643 11.3325 79.7643 12.3288V12.739C79.7643 13.4716 79.6149 14.1749 79.2863 14.8195C79.0175 15.4056 78.5693 15.9037 78.0017 16.2553C77.4043 16.607 76.7172 16.7828 76.0301 16.7535C74.9845 16.8121 73.9986 16.4018 73.2817 15.64C72.5647 14.8195 72.2062 13.7646 72.2659 12.6804L72.2958 12.6218ZM74.1181 12.7977C74.0584 13.4716 74.2376 14.1456 74.5961 14.7023C74.9247 15.1418 75.4625 15.4056 76.0301 15.3763C76.5977 15.4056 77.1354 15.1418 77.464 14.673C77.8524 14.0577 78.0316 13.3544 77.9719 12.6218C78.0017 11.9479 77.8225 11.3032 77.4341 10.7172C77.1055 10.2776 76.5678 10.0139 76.0002 10.0139C75.4326 9.98462 74.9247 10.2483 74.5961 10.6879C74.2376 11.3325 74.0584 12.0651 74.1181 12.7977Z" fill="#4F535E"/>
<path d="M81.3177 6.73205C81.2878 6.46833 81.4073 6.2046 81.6164 6.02879C81.8255 5.85298 82.0944 5.76507 82.3632 5.79437C82.6321 5.76507 82.9308 5.88228 83.1101 6.05809C83.2893 6.23391 83.379 6.49763 83.379 6.73205C83.379 6.96647 83.2893 7.20089 83.1101 7.3767C82.901 7.55252 82.6321 7.66973 82.3632 7.64042C82.0944 7.66973 81.7956 7.55252 81.6164 7.3767C81.4073 7.20089 81.3177 6.96647 81.3177 6.73205ZM83.2296 16.6656H81.4073V8.78322H83.2296V16.6656Z" fill="#4F535E"/>
<path fill-rule="evenodd" clip-rule="evenodd" d="M86.8745 8.78322V9.69159C87.4421 8.98833 88.3084 8.6074 89.2046 8.63671C90.8776 8.63671 91.7439 9.57438 91.7738 11.4497V16.6656H90.071V11.5376C90.1009 11.1274 89.9814 10.7465 89.7424 10.4242C89.4436 10.1604 89.0553 10.0432 88.6669 10.0725C87.9798 10.0432 87.3525 10.4242 87.0537 11.0395V16.6363H85.2015V8.78322H86.8745Z" fill="#4F535E"/>
<path d="M13.3373 10.8054H10.1008V7.59842H12.1484C12.8089 7.56603 13.5024 7.6956 14.1299 7.92235C14.6253 8.08432 15.0216 8.40825 15.3518 8.79697C15.6491 9.18569 15.8472 9.6392 15.9463 10.1251C16.0784 10.6758 16.1114 11.2589 16.1114 11.8095C16.1114 12.3926 16.0784 12.9433 15.9463 13.494C15.8472 13.9799 15.6491 14.4334 15.3518 14.8221C15.0216 15.2108 14.5923 15.5024 14.1299 15.6967C13.5024 15.9235 12.8089 16.0531 12.1484 16.0207H10.1008V12.4898H13.3373V10.8054Z" fill="#4F535E"/>
<path fill-rule="evenodd" clip-rule="evenodd" d="M24.3615 12C24.3615 18.5372 18.9587 23.8367 12.2939 23.8367C5.62917 23.8367 0.226318 18.5372 0.226318 12C0.226318 5.4627 5.62917 0.163208 12.2939 0.163208C18.9587 0.163208 24.3615 5.4627 24.3615 12ZM6.93044 12.4898H8.05329V17.5432H12.941C13.7666 17.5756 14.5592 17.4136 15.2858 17.0897C15.9133 16.7981 16.4747 16.377 16.904 15.8263C17.3333 15.2756 17.6636 14.6602 17.8617 14.0123C18.0599 13.2672 18.159 12.5222 18.159 11.7448C18.192 10.9673 18.0599 10.1899 17.8617 9.44484C17.6636 8.79697 17.3333 8.14911 16.904 7.59842C16.4747 7.04773 15.9133 6.62662 15.2858 6.33508C14.5592 6.01115 13.7336 5.84918 12.941 5.88157H8.05329V10.8054H6.93044V12.4898Z" fill="#4F535E"/>
</svg>
