<svg width="127" height="24" viewBox="0 0 127 24" fill="none" xmlns="http://www.w3.org/2000/svg">
<g clip-path="url(#clip0_8931_907)">
<path d="M101.11 13.5833V19.1068H99.3547V5.44409H104.001C105.187 5.44409 106.195 5.83399 107.023 6.63005C107.868 7.42609 108.274 8.38457 108.274 9.50554C108.274 10.659 107.851 11.6338 107.023 12.3973C106.211 13.1771 105.204 13.567 104.001 13.567H101.11V13.5833ZM101.11 7.13364V11.9099H104.05C104.749 11.9099 105.334 11.6825 105.788 11.2114C106.26 10.7403 106.487 10.1879 106.487 9.53803C106.487 8.90449 106.26 8.35208 105.788 7.88098C105.334 7.3936 104.749 7.14991 104.05 7.14991H101.11V7.13364Z" fill="#4F535E"/>
<path d="M112.872 9.45679C114.171 9.45679 115.195 9.79794 115.942 10.4965C116.69 11.1951 117.063 12.1374 117.063 13.3558V19.123H115.39V17.8234H115.309C114.578 18.8956 113.619 19.4317 112.417 19.4317C111.393 19.4317 110.532 19.123 109.834 18.5219C109.135 17.9046 108.794 17.1411 108.794 16.2313C108.794 15.2728 109.151 14.493 109.899 13.9244C110.63 13.3558 111.605 13.0633 112.823 13.0633C113.862 13.0633 114.723 13.2583 115.406 13.632V13.2258C115.406 12.6085 115.162 12.1049 114.675 11.6662C114.188 11.2438 113.619 11.0326 112.969 11.0326C111.994 11.0326 111.215 11.4388 110.646 12.2673L109.103 11.2926C109.947 10.0741 111.215 9.45679 112.872 9.45679ZM110.597 16.2476C110.597 16.7024 110.792 17.0923 111.182 17.3847C111.572 17.6934 112.027 17.8396 112.546 17.8396C113.278 17.8396 113.944 17.5635 114.529 17.0273C115.113 16.475 115.39 15.8414 115.39 15.0941C114.838 14.6554 114.074 14.4442 113.099 14.4442C112.384 14.4442 111.8 14.6229 111.312 14.9641C110.841 15.3215 110.597 15.7439 110.597 16.2476Z" fill="#4F535E"/>
<path d="M126.616 9.76538L120.767 23.2332H118.948L121.125 18.5219L117.274 9.76538H119.175L121.953 16.4749H121.986L124.699 9.76538H126.616Z" fill="#4F535E"/>
<path d="M40.2208 19.4156C35.9643 19.4156 32.3903 15.9552 32.3903 11.6989C32.3903 7.44243 35.9643 3.98206 40.2208 3.98206C42.5764 3.98206 44.2497 4.90807 45.5006 6.11025L44.006 7.60487C43.0962 6.76013 41.8778 6.09404 40.2045 6.09404C37.1015 6.09404 34.6646 8.59589 34.6646 11.6989C34.6646 14.8018 37.0853 17.3037 40.2045 17.3037C42.219 17.3037 43.3724 16.4914 44.1035 15.7603C44.7046 15.1592 45.0945 14.2982 45.257 13.1122H40.1558V11.0003H47.3039C47.3852 11.3739 47.4177 11.8288 47.4177 12.3162C47.4177 13.892 46.979 15.8578 45.5981 17.2549C44.2334 18.6683 42.5114 19.4156 40.2208 19.4156Z" fill="#4F535E"/>
<path d="M58.1245 14.4442C58.1245 17.3035 55.8825 19.4155 53.1369 19.4155C50.3914 19.4155 48.1494 17.3035 48.1494 14.4442C48.1494 11.5687 50.3914 9.47302 53.1369 9.47302C55.8825 9.47302 58.1245 11.5687 58.1245 14.4442ZM55.9475 14.4442C55.9475 12.6572 54.6478 11.4388 53.1532 11.4388C51.6586 11.4388 50.3589 12.6572 50.3589 14.4442C50.3589 16.215 51.6586 17.4497 53.1532 17.4497C54.6478 17.4497 55.9475 16.215 55.9475 14.4442Z" fill="#4F535E"/>
<path d="M68.976 14.4442C68.976 17.3035 66.734 19.4155 63.9886 19.4155C61.2427 19.4155 59.0007 17.3035 59.0007 14.4442C59.0007 11.5687 61.2427 9.47302 63.9886 9.47302C66.734 9.47302 68.976 11.5687 68.976 14.4442ZM66.7826 14.4442C66.7826 12.6572 65.4831 11.4388 63.9886 11.4388C62.4936 11.4388 61.1941 12.6572 61.1941 14.4442C61.1941 16.215 62.4936 17.4497 63.9886 17.4497C65.4831 17.4497 66.7826 16.215 66.7826 14.4442Z" fill="#4F535E"/>
<path d="M79.3399 9.78169V18.7007C79.3399 22.3722 77.1793 23.8831 74.6125 23.8831C72.2078 23.8831 70.762 22.2585 70.2094 20.9426L72.1106 20.1465C72.4513 20.9588 73.2802 21.9174 74.6125 21.9174C76.2533 21.9174 77.2601 20.8939 77.2601 18.9931V18.2783H77.1793C76.6917 18.8794 75.7493 19.4155 74.5633 19.4155C72.0779 19.4155 69.8037 17.2548 69.8037 14.4605C69.8037 11.65 72.0779 9.47302 74.5633 9.47302C75.7493 9.47302 76.6917 9.99289 77.1793 10.5777H77.2601V9.76547H79.3399V9.78169ZM77.4228 14.4605C77.4228 12.7059 76.2533 11.4225 74.7746 11.4225C73.2638 11.4225 72.0129 12.7059 72.0129 14.4605C72.0129 16.1988 73.2802 17.4497 74.7746 17.4497C76.2533 17.4497 77.4228 16.1988 77.4228 14.4605Z" fill="#4F535E"/>
<path d="M83.0932 4.50195V19.107H80.9163V4.50195H83.0932Z" fill="#4F535E"/>
<path d="M91.557 16.0852L93.2464 17.2224C92.6944 18.0347 91.3785 19.4319 89.1037 19.4319C86.277 19.4319 84.1814 17.2549 84.1814 14.4607C84.1814 11.5039 86.3098 9.48938 88.8602 9.48938C91.4434 9.48938 92.6944 11.5364 93.1164 12.6573L93.3441 13.2259L86.6996 15.9715C87.2031 16.9625 87.9992 17.4824 89.1037 17.4824C90.2089 17.4499 90.9886 16.9138 91.557 16.0852ZM86.342 14.2982L90.7773 12.4461C90.5338 11.8288 89.8027 11.3902 88.9252 11.3902C87.8206 11.3902 86.277 12.3811 86.342 14.2982Z" fill="#4F535E"/>
<path d="M24.2042 4.73738C21.5756 3.22002 18.2144 4.12167 16.6954 6.75026L12.8663 13.3834C11.7583 15.2988 13.1846 15.9681 14.7751 16.9218L18.4597 19.0483C19.7074 19.768 21.3011 19.3408 22.0208 18.0947L25.9572 11.278C27.2796 8.9873 26.4949 6.05983 24.2042 4.73738Z" fill="#4F535E"/>
<path d="M19.8715 7.48288L16.187 5.35632C14.153 4.22724 13.0012 4.1525 12.1661 5.47979L6.73192 14.891C5.21453 17.518 6.11781 20.8776 8.74476 22.3917C11.0354 23.7141 13.9629 22.9295 15.2853 20.6388L20.8235 11.0456C21.5465 9.79794 21.1192 8.20259 19.8715 7.48288Z" fill="#3C4049"/>
<path d="M20.5806 2.64493L17.9927 1.15032C15.1302 -0.501888 11.47 0.477735 9.8178 3.34025L4.89041 11.8742C4.1626 13.1332 4.59474 14.7448 5.85381 15.471L8.75208 17.1443C10.1833 17.9713 12.0126 17.4806 12.8395 16.0494L18.4687 6.30027C19.6351 4.28089 22.2166 3.58882 24.2359 4.75527L20.5806 2.64493Z" fill="#2D3039"/>
<path d="M10.5178 5.78191L7.72026 4.17032C6.47256 3.45226 4.87886 3.8779 4.15917 5.12233L0.802783 10.9221C-0.849424 13.7765 0.130202 17.4286 2.99272 19.0759L5.12255 20.3024L7.70563 21.7906L8.8266 22.4355C6.83648 21.1034 6.20452 18.4342 7.42132 16.332L8.29047 14.8308L11.473 9.33162C12.1911 8.09047 11.7639 6.49997 10.5178 5.78191Z" fill="#4F535E"/>
</g>
<defs>
<clipPath id="clip0_8931_907">
<rect width="127" height="24" fill="white"/>
</clipPath>
</defs>
</svg>
