<svg width="76" height="24" viewBox="0 0 76 24" fill="none" xmlns="http://www.w3.org/2000/svg">
<g clip-path="url(#clip0_8931_976)">
<path d="M45.8504 17.4133C46.0815 16.4915 46.2948 15.6337 46.523 14.7791C46.5441 14.7371 46.5728 14.7002 46.6074 14.6705C46.642 14.6408 46.6818 14.6189 46.7244 14.6062C46.8227 14.5901 46.9225 14.5901 47.0207 14.6062H59.8207C60.197 14.6062 60.36 14.4942 60.4489 14.0941C60.6326 13.2395 60.8696 12.3977 61.1007 11.4823H48.917C48.7872 11.4849 48.6574 11.4763 48.5289 11.4566C47.9037 11.3478 47.6104 10.9541 47.7141 10.2756C47.8113 9.73569 47.9339 9.20154 48.0815 8.67517C48.4548 7.19961 48.8519 5.72726 49.2104 4.2485C49.3212 3.7767 49.5746 3.35836 49.9305 3.05976C50.2863 2.76116 50.7242 2.5994 51.1748 2.6001C55.9985 2.63211 60.8222 2.6001 65.6459 2.6161C65.7585 2.6161 65.8741 2.6161 66.0281 2.63531C65.803 3.51872 65.5985 4.36693 65.3585 5.19593C65.3289 5.30476 65.1126 5.41358 64.9822 5.41358H52.0756C51.7259 5.41358 51.5452 5.5 51.4563 5.8905C51.2578 6.78351 51.0148 7.66053 50.7689 8.61436H63.0207C63.2449 8.60866 63.4681 8.64884 63.6785 8.73279C64.0963 8.91843 64.2711 9.39535 64.1348 9.96829C63.8385 11.1526 63.5422 12.3305 63.2459 13.5147C63.0593 14.2509 62.8548 14.9871 62.6889 15.7297C62.5815 16.2079 62.3286 16.6334 61.9709 16.9381C61.6131 17.2427 61.1711 17.4089 60.7156 17.4101C55.9274 17.3781 51.1393 17.4101 46.3511 17.4101L45.8504 17.4133ZM21.9363 17.4133L23.7141 10.4164L23.6311 10.3684L16.4815 17.4101C15.0267 14.7278 13.5867 12.0808 12.0963 9.33133C11.8267 10.3716 11.5867 11.2902 11.3496 12.212C10.9378 13.8124 10.52 15.432 10.1171 17.0452C10.1124 17.1009 10.0972 17.1549 10.0724 17.2039C10.0476 17.2529 10.0137 17.2959 9.97286 17.3301C9.93199 17.3644 9.88502 17.3892 9.83489 17.4029C9.78476 17.4167 9.73254 17.4191 9.6815 17.4101C8.92594 17.3909 8.17038 17.4101 7.34964 17.4101L11.1363 2.62251L16.9852 13.0794L28.277 2.78574L28.3363 2.82735C28.12 3.69797 27.8978 4.56538 27.6815 5.43279C26.6978 9.27372 25.7022 13.1146 24.7185 16.9556C24.6178 17.3429 24.4726 17.4517 24.1259 17.4357C23.4237 17.3909 22.7156 17.4133 21.9363 17.4133ZM27.2311 17.4133C27.3882 16.8019 27.5274 16.2386 27.6726 15.6785C28.2385 13.4827 28.8104 11.2806 29.3793 9.07527C29.386 9.0049 29.4061 8.93679 29.4383 8.87517C29.4704 8.81355 29.514 8.75974 29.5663 8.7171C29.6185 8.67447 29.6783 8.64391 29.742 8.62733C29.8057 8.61076 29.8718 8.60852 29.9363 8.62076H42.843C42.8964 8.63122 42.9512 8.62954 43.004 8.61585C43.0568 8.60215 43.1064 8.57673 43.1496 8.5412C43.1928 8.50567 43.2287 8.46081 43.255 8.40949C43.2812 8.35816 43.2973 8.30148 43.3022 8.24307C43.4919 7.42687 43.7082 6.61707 43.9126 5.80408C43.9363 5.70805 43.9482 5.60883 43.9748 5.45199H30.2948C30.4607 4.81184 30.5911 4.21649 30.76 3.63715C30.8459 3.31707 30.8637 2.84976 31.0563 2.69292C31.2489 2.53608 31.7022 2.62571 32.0459 2.62571H46.0193C46.6622 2.62571 47.0059 2.89137 47.083 3.49632C47.1007 3.72348 47.0755 3.95217 47.0089 4.16848C46.5348 6.05374 46.0489 7.93259 45.5689 9.81465C45.4784 10.3104 45.2234 10.7535 44.8518 11.0605C44.4803 11.3676 44.0178 11.5175 43.5511 11.4823H31.8889C31.557 11.4823 31.4059 11.5623 31.2963 11.9464C30.8815 13.662 30.4074 15.3648 29.9867 17.0676C29.9245 17.3173 29.8444 17.4261 29.5867 17.4197C28.8193 17.4005 28.0519 17.4133 27.2311 17.4133ZM4.56742 17.3941H1.90076C2.03705 16.8372 2.16446 16.3154 2.29779 15.7937C3.37829 11.5921 4.45878 7.38953 5.53927 3.18584C5.67557 2.63211 5.67557 2.62891 6.22372 2.63211H8.34224L4.56742 17.3941Z" fill="#4F535E"/>
<path d="M1.37495 19.6067H1.77199L1.03125 22.2378H0.640137L1.37495 19.6067ZM5.17347 20.7174C5.18186 20.659 5.19373 20.6013 5.20902 20.5446L5.15865 20.6278L5.10532 20.7142C5.09051 20.7398 5.06977 20.7686 5.04902 20.7974C5.02828 20.8262 5.01051 20.855 4.98977 20.8806L3.86384 22.3402L3.56754 20.8806C3.55578 20.8236 3.54688 20.7659 3.54088 20.7078C3.54088 20.6502 3.52606 20.5958 3.5231 20.5414L3.46384 20.7142C3.44308 20.7763 3.41731 20.8362 3.3868 20.8934L2.79421 22.2442H2.41791L3.65347 19.5043L3.98828 21.2071C3.98828 21.2295 3.98828 21.2487 4.0031 21.2711C4.01791 21.2935 4.0031 21.3159 4.0031 21.3383C4.0031 21.3607 4.01791 21.4216 4.02384 21.4632C4.03203 21.5086 4.03699 21.5546 4.03865 21.6008L4.19569 21.3896C4.24014 21.3223 4.28754 21.2551 4.33199 21.1943L5.64162 19.5011L5.32754 22.2442H4.94532L5.14088 20.8998C5.15273 20.8454 5.16162 20.775 5.17347 20.7174ZM9.11125 20.7206C9.12027 20.6623 9.13213 20.6046 9.1468 20.5478C9.13174 20.5767 9.11492 20.6045 9.09643 20.631L9.0431 20.7174C9.02629 20.7466 9.00747 20.7744 8.9868 20.8006L8.92754 20.887L7.80162 22.3466L7.50532 20.8838C7.49332 20.8279 7.48441 20.7713 7.47865 20.7142C7.47865 20.6566 7.46384 20.599 7.46088 20.5446C7.44014 20.6022 7.42236 20.6598 7.40162 20.7206C7.38083 20.7816 7.35505 20.8405 7.32458 20.8966L6.7468 22.2474H6.36754L7.6031 19.5043L7.93791 21.2071C7.93791 21.2295 7.93791 21.2519 7.95273 21.2711C7.96754 21.2903 7.95273 21.3159 7.95273 21.3383C7.95273 21.3607 7.96754 21.4216 7.97347 21.4632C7.98147 21.5086 7.98642 21.5546 7.98828 21.6008L8.12162 21.3928C8.16606 21.3255 8.21347 21.2615 8.25791 21.1975L9.56754 19.5075L9.25347 22.2506H8.8831L9.07865 20.9062C9.0905 20.8454 9.09939 20.7814 9.11125 20.7206ZM11.0312 19.6195H12.4149L12.3201 19.9908H11.3068L11.129 20.6502H12.1305L12.0268 21.0119H11.0105L10.7764 21.8665H11.7809L11.6712 22.2474H10.2935L11.0312 19.6195ZM13.8164 19.6195H14.3438C14.5263 19.6186 14.7085 19.6325 14.889 19.6611C15.0627 19.6894 15.2213 19.7836 15.3364 19.9268C15.4347 20.0376 15.5015 20.1764 15.529 20.3269C15.5558 20.4835 15.5558 20.644 15.529 20.8006V20.9478C15.4801 21.1557 15.4 21.3536 15.292 21.5336C15.1803 21.7155 15.0338 21.8694 14.8624 21.9849C14.7001 22.1051 14.5147 22.1839 14.3201 22.2154C14.1364 22.2412 13.9513 22.254 13.7661 22.2538H13.0846L13.8164 19.6195ZM13.6416 21.8601H14.2194C14.4266 21.8349 14.6209 21.7384 14.7735 21.5848C14.925 21.4309 15.0364 21.2366 15.0964 21.0215C15.0954 21.0098 15.0954 20.998 15.0964 20.9863C15.0981 20.9724 15.0981 20.9585 15.0964 20.9446V20.9094C15.0978 20.8978 15.0978 20.8859 15.0964 20.8742V20.7942C15.1075 20.678 15.0974 20.5606 15.0668 20.4485C15.0408 20.3517 14.9919 20.2638 14.9249 20.1936C14.8578 20.1235 14.775 20.0734 14.6846 20.0484C14.6012 20.025 14.5158 20.011 14.4298 20.0068H14.0624L13.5409 21.8825L13.6416 21.8601ZM17.0727 19.6227H17.4698L16.729 22.2538H16.3438L17.0727 19.6227ZM19.9498 19.5203L20.4268 22.2602H20.0238L19.9231 21.62H18.9305L18.5098 22.2602H18.0949L19.9498 19.5203ZM19.8727 21.2871L19.7779 20.647C19.7749 20.6065 19.7749 20.5658 19.7779 20.5253V20.3205C19.7681 20.3393 19.7572 20.3575 19.7453 20.3749C19.7362 20.3952 19.7253 20.4145 19.7127 20.4325L19.6505 20.5446C19.6312 20.5822 19.6084 20.6176 19.5824 20.6502L19.1557 21.2903L19.8727 21.2871ZM22.4949 20.0068H21.8224L21.929 19.6291H23.6268L23.5172 20.0036H22.8861L22.2579 22.2442H21.8668L22.4949 20.0068ZM24.9986 19.6323H26.3794L26.2846 20.0068H25.2742L25.0964 20.6662H26.0979L25.9942 21.0311H24.9898L24.7527 21.8889H25.7572L25.6475 22.2698H24.2579L24.9986 19.6323ZM29.1972 22.2698L29.9379 19.6387H30.5661C30.6783 19.6443 30.7897 19.6636 30.8979 19.6963C31.0023 19.7288 31.092 19.8018 31.1498 19.9012C31.1804 19.9564 31.2015 20.0171 31.212 20.0804C31.2195 20.1463 31.2195 20.213 31.212 20.2789V20.3717C31.1736 20.5534 31.0871 20.7191 30.9631 20.8486C30.8428 20.9893 30.6839 21.0847 30.5098 21.1207H29.8935L29.5764 22.2506L29.1972 22.2698ZM30.0446 20.7686H30.2698C30.3883 20.7653 30.505 20.7371 30.6135 20.6854C30.6709 20.6558 30.7203 20.6109 30.7571 20.5549C30.7939 20.4988 30.8169 20.4336 30.8238 20.3653C30.8446 20.2277 30.8238 20.1349 30.729 20.0932C30.6363 20.0455 30.5354 20.0193 30.4327 20.0164H30.1957L29.9823 20.7718L30.0446 20.7686ZM33.7986 19.5363L34.2786 22.2762H33.8727L33.772 21.636H32.7823L32.3616 22.2762H31.9438L33.7986 19.5363ZM33.7216 21.2999L33.6268 20.6598C33.6237 20.6204 33.6237 20.5808 33.6268 20.5414C33.6238 20.4998 33.6238 20.4581 33.6268 20.4165C33.6253 20.4038 33.6253 20.3909 33.6268 20.3781V20.3365L33.5942 20.3909C33.5851 20.4102 33.5742 20.4284 33.5616 20.4453L33.4994 20.5606L33.4342 20.6662L33.0046 21.3063L33.7216 21.2999ZM36.1749 19.6451L36.4535 20.5253C36.4551 20.5338 36.4551 20.5425 36.4535 20.551C36.4548 20.5616 36.4548 20.5723 36.4535 20.583C36.4547 20.5925 36.4547 20.6022 36.4535 20.6118C36.4551 20.6224 36.4551 20.6332 36.4535 20.6438V20.7014C36.4548 20.7216 36.4548 20.742 36.4535 20.7622L36.5394 20.6374C36.569 20.5958 36.6016 20.5574 36.6342 20.5189L37.3809 19.6451H37.8283L36.6075 21.1047L36.2816 22.2762H35.8994L36.2312 21.0919L35.7601 19.6419L36.1749 19.6451ZM41.2327 20.7526C41.2417 20.6944 41.2536 20.6367 41.2683 20.5798C41.2683 20.6086 41.2357 20.6374 41.2179 20.6662L41.1646 20.7494C41.1475 20.7784 41.1287 20.8062 41.1083 20.8326L41.049 20.919L39.9231 22.3786L39.6268 20.9158C39.6268 20.8614 39.609 20.8038 39.6031 20.7462C39.5972 20.6886 39.5883 20.631 39.5853 20.5798C39.5646 20.6342 39.5468 20.6918 39.5261 20.7526C39.5053 20.8136 39.4795 20.8726 39.449 20.9286L38.8623 22.2794H38.4742L39.7098 19.5363L40.0475 21.2391V21.3704C40.0475 21.3928 40.0475 21.4568 40.0683 21.4984C40.0715 21.5431 40.0715 21.5881 40.0683 21.6328C40.1127 21.5624 40.1542 21.4952 40.2016 21.4248C40.249 21.3543 40.2935 21.2935 40.3379 21.2327L41.6475 19.5395L41.3335 22.2826H40.9512L41.1468 20.935C41.2061 20.8742 41.2149 20.8134 41.2327 20.7526ZM43.1468 19.6515H44.5305L44.4357 20.026H43.4253L43.2475 20.6886H44.249L44.1453 21.0535H43.1379L42.9009 21.9081H43.8994L43.7898 22.289H42.4179L43.1468 19.6515ZM45.8994 19.6579H46.0031L47.0342 21.2007C47.0652 21.2396 47.0929 21.2814 47.1172 21.3255C47.1438 21.3672 47.1675 21.412 47.1942 21.4568C47.1989 21.4702 47.2049 21.4831 47.212 21.4952L47.2298 21.5304L47.2475 21.428C47.2475 21.3928 47.2475 21.3575 47.2712 21.3223C47.2949 21.2871 47.2861 21.2551 47.2949 21.2199C47.3038 21.1847 47.2949 21.1495 47.3186 21.1143L47.7512 19.6547H48.1186L47.3749 22.289H47.2831L46.252 20.743C46.2167 20.6917 46.184 20.6382 46.1542 20.583C46.1211 20.5275 46.0914 20.4698 46.0653 20.4101C46.0653 20.4453 46.0475 20.4805 46.0416 20.5125C46.0357 20.5446 46.0238 20.5798 46.012 20.615C46.0001 20.6502 45.9972 20.6822 45.9883 20.7174C45.9794 20.7526 45.9705 20.7846 45.9616 20.8166L45.5527 22.2858H45.1912L45.8994 19.6579ZM49.7542 20.0356H49.0846L49.1883 19.6611H50.886L50.7764 20.0388H50.1453L49.5172 22.2794H49.126L49.7542 20.0356ZM54.0594 21.6008V21.6424C54.086 21.7187 54.1219 21.7908 54.166 21.8569C54.2089 21.9257 54.2747 21.9739 54.3498 21.9913H54.4594C54.5805 21.9895 54.6978 21.9457 54.7942 21.8665C54.8526 21.8247 54.9007 21.7682 54.9342 21.7018C54.9678 21.6355 54.9858 21.5612 54.9868 21.4856C54.9897 21.4611 54.9897 21.4364 54.9868 21.412C54.9893 21.3971 54.9893 21.382 54.9868 21.3672C54.9832 21.3517 54.9782 21.3367 54.972 21.3223C54.9426 21.2684 54.9032 21.2216 54.8564 21.1847C54.806 21.1463 54.7527 21.1047 54.6964 21.0695L54.6105 21.0151L54.5305 20.9639L54.4949 20.935L54.4594 20.9094C54.3901 20.8526 54.3368 20.7762 54.3053 20.6886C54.273 20.6056 54.2578 20.5161 54.2609 20.4261V20.3397C54.2595 20.3227 54.2595 20.3055 54.2609 20.2885V20.2341C54.3012 20.1149 54.3637 20.006 54.4446 19.914C54.5245 19.8091 54.6259 19.7258 54.7409 19.6707L54.8742 19.6291L55.0075 19.6003H55.1616C55.2811 19.6093 55.3968 19.6488 55.4994 19.7156C55.5999 19.7806 55.6803 19.8764 55.7305 19.9908L55.4609 20.2181C55.4243 20.1437 55.375 20.0775 55.3157 20.0228C55.2518 19.9681 55.172 19.9398 55.0905 19.9428C55.0027 19.9426 54.9162 19.9657 54.8386 20.01C54.7615 20.0527 54.6991 20.1212 54.6609 20.2053V20.2661C54.6532 20.279 54.6472 20.293 54.6431 20.3077C54.6417 20.3215 54.6417 20.3355 54.6431 20.3493C54.6329 20.395 54.6347 20.4429 54.6483 20.4876C54.6619 20.5322 54.6868 20.5719 54.7201 20.6022C54.7911 20.6705 54.8686 20.7306 54.9512 20.7814H54.9927L55.0905 20.8422C55.1189 20.861 55.1456 20.8824 55.1705 20.9062C55.2428 20.9739 55.297 21.0612 55.3275 21.1591C55.3592 21.2621 55.3713 21.371 55.3631 21.4792V21.5208C55.3614 21.5335 55.3614 21.5465 55.3631 21.5592C55.3396 21.6993 55.2869 21.8317 55.209 21.9465C55.1258 22.0703 55.0132 22.1676 54.8831 22.2282C54.833 22.254 54.7803 22.2733 54.726 22.2858C54.6713 22.3006 54.616 22.3123 54.5601 22.321H54.1631C54.0571 22.2935 53.9618 22.2308 53.8905 22.1417C53.8215 22.0532 53.7692 21.951 53.7364 21.8409L54.0594 21.6008ZM57.1972 19.6643H58.5779L58.486 20.0356H57.4727L57.2949 20.695H58.2994L58.1957 21.0599H57.1883L56.9512 21.9145H57.9586L57.846 22.2954H56.4564L57.1972 19.6643ZM59.2238 22.3018L59.9646 19.6675H60.5572C60.6438 19.6738 60.7299 19.6867 60.8149 19.7059C60.8954 19.727 60.9703 19.7675 61.0342 19.8244C61.0927 19.8806 61.1366 19.9523 61.1616 20.0324C61.1858 20.1129 61.1939 20.198 61.1853 20.2821C61.1882 20.2914 61.1882 20.3016 61.1853 20.3109V20.3845C61.161 20.5844 61.073 20.7689 60.9364 20.9062C60.7915 21.038 60.6165 21.1253 60.4297 21.1591L60.9364 22.3018H60.492L60.0149 21.1655H59.932L59.6031 22.3018H59.2238ZM60.0475 20.8454H60.2194C60.3423 20.8394 60.4635 20.8113 60.5779 20.7622C60.6377 20.7318 60.6888 20.6845 60.7258 20.6254C60.7629 20.5662 60.7844 20.4974 60.7883 20.4261C60.812 20.2597 60.7883 20.1573 60.6875 20.106C60.5865 20.0629 60.4791 20.0401 60.3705 20.0388H60.2372L60.0209 20.8454H60.0475ZM62.7557 19.6707L62.9068 21.2423C62.9082 21.27 62.9082 21.2978 62.9068 21.3255V21.5688L62.9246 21.5336C62.9305 21.5222 62.9374 21.5115 62.9453 21.5016V21.4568C62.966 21.4184 62.9897 21.38 63.0135 21.3447C63.0344 21.3072 63.0572 21.2709 63.0816 21.2359L64.1186 19.6739H64.5364L62.6431 22.401L62.3231 19.6707H62.7557ZM65.9231 19.6739H66.3172L65.5794 22.3082H65.1853L65.9231 19.6739ZM69.2979 20.2949C69.2132 20.1997 69.1127 20.1227 69.0016 20.0676C68.8858 20.0125 68.7607 19.9842 68.6342 19.9844H68.4268C68.4034 19.9879 68.3806 19.9943 68.3586 20.0036C68.1473 20.0718 67.9602 20.2081 67.8223 20.3941C67.6836 20.5697 67.5824 20.7763 67.526 20.9991V21.0695C67.487 21.2735 67.5231 21.4859 67.6268 21.6616C67.6784 21.7488 67.7481 21.8216 67.8304 21.8744C67.9127 21.9272 68.0053 21.9585 68.1009 21.9657H68.2342C68.3629 21.9648 68.4903 21.9387 68.6105 21.8889C68.736 21.8363 68.8562 21.7698 68.969 21.6904L68.7883 22.2346C68.7085 22.2629 68.6274 22.2864 68.5453 22.305C68.4623 22.305 68.3794 22.337 68.2964 22.3466H67.9438C67.8645 22.3375 67.7861 22.3204 67.7097 22.2954C67.6361 22.2732 67.5661 22.2386 67.5023 22.193C67.3389 22.0882 67.2159 21.9235 67.1557 21.7288C67.0969 21.5359 67.0836 21.3302 67.1172 21.1303C67.1204 21.1054 67.1253 21.0808 67.132 21.0567C67.1355 21.0308 67.1404 21.0051 67.1468 20.9799C67.2372 20.6385 67.41 20.3292 67.6475 20.0836C67.8817 19.8173 68.1977 19.6524 68.5364 19.6195H68.7201C68.8484 19.6191 68.9761 19.6385 69.0994 19.6771C69.218 19.7159 69.3308 19.773 69.4342 19.8468L69.2979 20.2949ZM70.8297 19.6803H72.2134L72.1186 20.0516H71.1083L70.9305 20.711H71.932L71.8283 21.0727H70.8209L70.5838 21.9273H71.5912L71.4816 22.3082H70.092L70.8297 19.6803Z" fill="#4F535E"/>
<path d="M67.4329 17.4275L69.3336 10.0385L70.284 6.34403L71.2343 2.64954C71.2343 2.64954 74.5825 10.0401 74.5617 10.0401C74.541 10.0401 67.4329 17.4275 67.4329 17.4275Z" fill="#4F535E"/>
<path d="M64.9856 17.4275L68.7871 2.64954C68.7871 2.64954 72.1352 10.0401 72.1145 10.0401C72.0937 10.0401 64.9856 17.4275 64.9856 17.4275Z" fill="#4F535E"/>
</g>
<defs>
<clipPath id="clip0_8931_976">
<rect width="73.92" height="19.8" fill="white" transform="translate(0.640137 2.59998)"/>
</clipPath>
</defs>
</svg>
