<svg width="150" height="40" viewBox="0 0 150 40" fill="none" xmlns="http://www.w3.org/2000/svg">
<g clip-path="url(#clip0_8664_3903)">
<path d="M57.3016 25.0011L58.8648 12.2232L60.4281 25.0011H57.3016ZM65.6952 32.0917L62.0243 6.32031H55.701L52.0301 32.1184L50.9652 33.702H57.5343L56.4585 32.1028L56.8361 28.8111H60.8935L61.2953 32.0873L60.2195 33.6864H66.7886L65.693 32.0873L65.6974 32.0917H65.6952Z" fill="white"/>
<path d="M35.3503 6.32031L36.4262 7.91949V32.0917L35.3503 33.6909H41.7504L40.6724 32.0917V15.386L45.3116 33.6909H49.5578V7.91949L50.6336 6.32031H44.6442L45.3116 7.84831V21.7694L42.027 7.89057L42.7143 6.32031H35.3503Z" fill="white"/>
<path d="M75.404 25.1234V29.8787H71.9021V10.1325H75.404V16.5848L79.5031 13.7535V8.67348C78.5964 7.7549 78.087 7.23889 77.1802 6.32031H69.9854L67.6625 8.67348V31.3333L69.9854 33.6864H77.1802C78.087 32.7678 78.5964 32.2518 79.5031 31.3333V22.292L75.404 25.1234Z" fill="white"/>
<path d="M21.6084 33.6909L20.5325 32.0917V7.91949L21.6084 6.32031H13.1335L13.8119 7.8839L10.9709 24.5251L8.12981 7.8839L8.81044 6.32031H0.333374L1.407 7.91504V32.0917L0.333374 33.6909H6.72905L5.65322 32.0917V13.6712L9.40324 33.6909H12.5341L16.2863 13.6778V32.0917L15.2083 33.6909H21.6084Z" fill="white"/>
<path d="M89.6115 29.8787H86.9395V21.9095H89.4578L91.032 22.9993V17.0096L89.4578 18.1017H86.9395V10.1281H89.6115L92.3713 12.0364V6.32031H81.6218L82.6955 7.91504V32.0917L81.6218 33.6909H92.3713V27.9748L89.6115 29.8787Z" fill="white"/>
<path d="M31.0932 29.8787H28.4256V21.9095H30.9373L32.5159 22.9993V17.0096L30.9373 18.1017H28.4256V10.1281H31.0932L33.853 12.0364V6.32031H23.1035L24.1793 7.91504V32.0917L23.1035 33.6909H33.8552V27.9748L31.0932 29.8787Z" fill="white"/>
<path d="M149.667 18.4353V27.1162C149.667 29.3315 149.127 31.0397 148.046 32.2385C146.966 33.4106 145.396 33.9978 143.337 33.9978C141.277 33.9978 139.708 33.4106 138.627 32.2385C137.547 31.0397 137.007 29.3315 137.007 27.1162V12.8816C137.007 10.6663 137.547 8.97151 138.627 7.79715C139.708 6.59833 141.277 5.9978 143.337 5.9978C145.396 5.9978 146.966 6.59833 148.046 7.79715C149.127 8.96929 149.667 10.6641 149.667 12.8816V15.5417H145.651V12.608C145.651 10.8087 144.918 9.91011 143.451 9.91011C141.984 9.91011 141.251 10.8087 141.251 12.608V27.3898C141.251 29.1625 141.984 30.0499 143.451 30.0499C144.918 30.0499 145.651 29.1625 145.651 27.3898V22.3454H143.721V18.4353H149.667ZM124.664 33.6864H120.841V6.31363H126.168L130.53 22.6991V6.31363H134.313V33.6864H129.951L124.661 13.8602V33.6864H124.664ZM117.774 6.31363V33.6864H113.528V6.31363H117.774ZM101.79 25.2791V33.6864H97.5441V6.31363H101.79V18.2396L107.349 6.31363H111.596L105.69 18.5154L111.596 33.6886H107.233L103.103 22.7791L101.79 25.2813V25.2791Z" fill="#ECD319"/>
</g>
<defs>
<clipPath id="clip0_8664_3903">
<rect width="150" height="28" fill="white" transform="translate(0 6)"/>
</clipPath>
</defs>
</svg>
