<svg width="84" height="50" fill="none" xmlns="http://www.w3.org/2000/svg"><path fill-rule="evenodd" clip-rule="evenodd" d="M41.842 6.527c-4.995 4.571-8.128 11.144-8.128 18.45 0 7.304 3.133 13.878 8.128 18.449 4.996-4.571 8.13-11.145 8.13-18.45s-3.134-13.878-8.13-18.449z" fill="#656777" fill-opacity=".5"/><path fill-rule="evenodd" clip-rule="evenodd" d="M41.871 6.55c-4.996 4.572-8.129 11.145-8.129 18.45s3.133 13.878 8.13 18.45A24.922 24.922 0 0125 50C11.192 50-.001 38.807-.001 25S11.193 0 25 0a24.91 24.91 0 0116.871 6.55z" fill="#656777" fill-opacity=".3"/><path fill-rule="evenodd" clip-rule="evenodd" d="M58.683 50c13.807 0 25-11.193 25-25s-11.193-25-25-25a24.91 24.91 0 00-16.871 6.55C46.807 11.123 49.94 17.696 49.94 25s-3.134 13.878-8.13 18.45A24.91 24.91 0 0058.684 50z" fill="#656777" fill-opacity=".7"/></svg>