<svg width="290" height="50" fill="none" xmlns="http://www.w3.org/2000/svg"><path d="M284.052 3.8C280.365 1.276 274.785 0 267.47 0h-19.156l-7.122 38.663h-25.095l1.613-8.771h15.117l1.791-9.852-15.108.021 1.617-8.732h15.572L238.77.003h-31.622l-6.761 36.674h-11.604L195.589 0h-16.53l-6.76 36.674h-11.305L167.807 0h-16.521l-7.131 38.663h-25.276l1.598-8.772h15.178l1.794-9.796-15.164-.015 1.609-8.75h15.746L141.699 0h-98.54L37.55 30.637 26.38 0H9.23L0 50h16.379l5.587-31.482L32.804 50h58.7l7.137-38.674h9.18L100.684 50h154.45l4.479-24.413L266.856 50h16.387l-7.506-19.948 1.717-.37c3.783-.81 6.733-2.552 8.787-5.163 2.052-2.634 3.098-6.017 3.098-10.08 0-4.73-1.73-8.211-5.291-10.641l.004.003zM77.251 38.664H52.18l1.62-8.771h15.725l1.782-9.88H55.733l1.5-8.68h25.035l-5.022 27.331h.005zM270.55 21.822c-1.648 1.152-4.037 1.713-7.304 1.713h-3.24l2.485-13.418h2.383c2.713 0 4.691.435 6.056 1.322 1.065.695 2.333 2.072 2.333 4.674-.004 3.148-1.478 4.839-2.718 5.708h.005z" fill="#656777"/></svg>