<svg width="160" height="50" fill="none" xmlns="http://www.w3.org/2000/svg"><path d="M159.304 14.748a10.65 10.65 0 00-10.049-7.113h-.097c-3.019 0-5.74 1.254-7.677 3.267a10.628 10.628 0 00-7.677-3.267h-.097c-2.654 0-5.08.97-6.943 2.575v-.816a1.568 1.568 0 00-1.562-1.452h-7.124c-.871 0-1.575.703-1.575 1.575v38.61c0 .873.704 1.575 1.575 1.575h7.124c.794 0 1.448-.592 1.552-1.358l-.004-27.717c0-.097.004-.187.014-.278.114-1.237 1.022-2.254 2.456-2.38h1.314a2.776 2.776 0 011.504.581c.62.492.965 1.248.965 2.077l.027 27.58c0 .873.707 1.579 1.575 1.579h7.124c.841 0 1.524-.67 1.565-1.502l-.004-27.694c-.003-.91.419-1.732 1.16-2.22a2.899 2.899 0 011.31-.439h1.314c1.541.134 2.472 1.302 2.469 2.66l.027 27.542c0 .873.707 1.576 1.575 1.576h7.124c.868 0 1.575-.703 1.575-1.576V18.51c0-2.02-.228-2.88-.54-3.762zM111.076 8.043h-4.075V1.455v-.02c0-.793-.643-1.435-1.437-1.435-.094 0-.184.013-.272.03-4.517 1.237-3.612 7.481-11.858 8.013H92.633c-.12 0-.235.017-.345.04a1.574 1.574 0 00-1.233 1.532v7.11c0 .866.707 1.571 1.578 1.571h4.299l-.007 30.149c0 .86.697 1.555 1.559 1.555h7.043c.858 0 1.555-.696 1.555-1.555l.003-30.149h3.991c.868 0 1.575-.705 1.575-1.571v-7.11c0-.866-.707-1.572-1.575-1.572zM85.445 8.043H78.32c-.868 0-1.572.706-1.572 1.572v14.701a1.666 1.666 0 01-1.668 1.639h-2.983a1.666 1.666 0 01-1.672-1.666L70.4 9.615c0-.866-.707-1.572-1.575-1.572h-7.123c-.872 0-1.575.706-1.575 1.572v16.112c0 6.12 4.373 10.485 10.508 10.485 0 0 4.604 0 4.745.026.83.094 1.478.79 1.478 1.646 0 .846-.634 1.538-1.455 1.642-.04.006-.077.016-.12.023l-10.418.037c-.872 0-1.575.706-1.575 1.572v7.106c0 .87.703 1.572 1.575 1.572H76.51c6.14 0 10.509-4.36 10.509-10.484V9.615c0-.866-.704-1.572-1.575-1.572zM16.49 21.07v4.388a1.67 1.67 0 01-1.669 1.669l-4.52.003v-8.792h4.52c.922 0 1.669.743 1.669 1.666v1.066zm.627-13.029H1.544C.69 8.041 0 8.733 0 9.583v6.966c0 .013.004.027.004.04 0 .034-.004.067-.004.097v31.53c0 .856.644 1.555 1.441 1.575H8.7c.868 0 1.575-.702 1.575-1.572l.027-10.805h6.815c5.704 0 9.678-3.95 9.678-9.665v-10.03c0-5.715-3.974-9.678-9.678-9.678zM46.048 37.762v1.11c0 .09-.013.178-.027.261-.016.08-.04.158-.067.231-.22.622-.844 1.074-1.584 1.074h-2.966c-.925 0-1.679-.703-1.679-1.565v-1.341c0-.017-.003-.034-.003-.05l.003-3.569v-1.117l.003-.01c.004-.86.751-1.555 1.676-1.555h2.965c.929 0 1.68.699 1.68 1.565v4.966zm-1.132-29.68H35.03c-.875 0-1.582.662-1.582 1.475v2.765l.003.054-.003.06v3.79c0 .859.75 1.561 1.675 1.561h9.413c.744.117 1.334.659 1.417 1.505v.916c-.083.806-.666 1.395-1.377 1.462h-4.66c-6.2 0-10.617 4.11-10.617 9.882v8.267c0 5.739 3.797 9.822 9.953 9.822H52.17c2.32 0 4.199-1.752 4.199-3.91V18.754c0-6.54-3.378-10.671-11.453-10.671z" fill="#656777"/></svg>