<svg width="90" height="24" viewBox="0 0 90 24" fill="none" xmlns="http://www.w3.org/2000/svg">
<g clip-path="url(#clip0_8931_856)">
<path d="M61.7024 16.6703V12.4179C61.7024 11.3712 61.2953 10.8478 60.2774 10.8478C59.8703 10.8478 59.3953 10.9132 59.1239 10.9787V17.1936C59.1239 17.3899 58.9203 17.5862 58.7167 17.5862H57.156C56.9525 17.5862 56.7489 17.3899 56.7489 17.1936V9.93193C56.7489 9.67025 56.9525 9.47398 57.156 9.40856C58.1739 9.08146 59.1917 8.8852 60.2774 8.8852C62.7203 8.8852 64.0774 10.1282 64.0774 12.4179V17.2591C64.0774 17.4553 63.8739 17.6516 63.6703 17.6516H62.7203C62.1096 17.6516 61.7024 17.1936 61.7024 16.6703ZM67.8095 14.1189L67.7417 14.7077C67.7417 15.4927 68.2845 15.9507 69.1667 15.9507C69.8452 15.9507 70.456 15.7544 71.1345 15.4273C71.2024 15.4273 71.2702 15.3619 71.3381 15.3619C71.4738 15.3619 71.5417 15.4273 71.6095 15.4927C71.6774 15.5581 71.8131 15.7544 71.8131 15.7544C71.9488 15.9507 72.0845 16.2123 72.0845 16.4086C72.0845 16.7357 71.8809 17.0628 71.6095 17.1936C70.8631 17.5862 69.981 17.7824 69.031 17.7824C67.9453 17.7824 67.0631 17.5208 66.3846 16.9974C65.706 16.4086 65.2988 15.6235 65.2988 14.6422V12.0908C65.2988 10.0628 66.656 8.81978 68.9631 8.81978C71.2024 8.81978 72.4917 9.99735 72.4917 12.0908V13.6609C72.4917 13.8572 72.2881 14.0534 72.0845 14.0534H67.8095V14.1189ZM67.7417 12.6796H70.3202V12.0254C70.3202 11.2403 69.8452 10.717 69.031 10.717C68.2167 10.717 67.7417 11.1749 67.7417 12.0254V12.6796ZM85.0452 14.1189L84.9773 14.7077C84.9773 15.4927 85.5202 15.9507 86.4023 15.9507C87.0809 15.9507 87.6916 15.7544 88.3701 15.4273C88.438 15.4273 88.5059 15.3619 88.5737 15.3619C88.7094 15.3619 88.7773 15.4273 88.8451 15.4927C88.913 15.5581 89.0487 15.7544 89.0487 15.7544C89.1844 15.9507 89.3201 16.2123 89.3201 16.4086C89.3201 16.7357 89.1166 17.0628 88.8451 17.1936C88.0987 17.5862 87.2166 17.7824 86.2666 17.7824C85.1809 17.7824 84.2987 17.5208 83.6202 16.9974C82.9416 16.4086 82.5345 15.6235 82.5345 14.6422V12.0908C82.5345 10.0628 83.8916 8.81978 86.1987 8.81978C88.438 8.81978 89.7273 9.99735 89.7273 12.0908V13.6609C89.7273 13.8572 89.5237 14.0534 89.3201 14.0534H85.0452V14.1189ZM84.9773 12.6796H87.5559V12.0254C87.5559 11.2403 87.0809 10.717 86.2666 10.717C85.4523 10.717 84.9773 11.1749 84.9773 12.0254V12.6796ZM45.0775 17.6516H46.0275C46.2311 17.6516 46.4347 17.4553 46.4347 17.2591V12.4179C46.4347 10.1936 45.2132 8.8852 43.1775 8.8852C42.5668 8.8852 41.8883 9.01604 41.4811 9.14688V6.72631C41.4811 6.20294 41.0061 5.745 40.4633 5.745H39.5133C39.3097 5.745 39.1061 5.94126 39.1061 6.13752V17.2591C39.1061 17.4553 39.3097 17.6516 39.5133 17.6516H41.074C41.2776 17.6516 41.4811 17.4553 41.4811 17.2591V11.1095C41.8204 10.9787 42.2954 10.9132 42.6347 10.9132C43.6525 10.9132 44.0597 11.3712 44.0597 12.4833V16.7357C44.1275 17.1936 44.5347 17.6516 45.0775 17.6516ZM55.3239 12.1562V14.5768C55.3239 16.6049 53.8989 17.8479 51.5239 17.8479C49.2168 17.8479 47.7239 16.6049 47.7239 14.5768V12.1562C47.7239 10.1282 49.1489 8.8852 51.5239 8.8852C53.8989 8.8852 55.3239 10.1282 55.3239 12.1562ZM52.9489 12.1562C52.9489 11.3712 52.4739 10.8478 51.5918 10.8478C50.7096 10.8478 50.2346 11.3058 50.2346 12.1562V14.5768C50.2346 15.3619 50.7096 15.8198 51.5918 15.8198C52.4739 15.8198 52.9489 15.3619 52.9489 14.5768V12.1562ZM37.8169 11.0441C37.8169 13.1376 36.1883 14.5768 34.0169 14.5768C33.474 14.5768 32.999 14.5114 32.524 14.3151V17.2591C32.524 17.4553 32.3205 17.6516 32.1169 17.6516H30.5562C30.3526 17.6516 30.149 17.4553 30.149 17.2591V6.85715C30.149 6.59547 30.3526 6.3992 30.5562 6.33378C31.574 6.00668 32.5919 5.81042 33.6776 5.81042C36.1204 5.81042 37.8169 7.24968 37.8169 9.47399V11.0441ZM35.374 9.34314C35.374 8.29641 34.6276 7.77304 33.6097 7.77304C32.999 7.77304 32.5919 7.9693 32.5919 7.9693V12.2871C32.999 12.4833 33.2026 12.5488 33.6776 12.5488C34.6955 12.5488 35.4419 11.96 35.4419 10.9787V9.34314H35.374ZM81.6523 11.0441C81.6523 13.1376 80.0238 14.5768 77.8523 14.5768C77.3095 14.5768 76.8345 14.5114 76.3595 14.3151V17.2591C76.3595 17.4553 76.1559 17.6516 75.9524 17.6516H74.3916C74.1881 17.6516 73.9845 17.4553 73.9845 17.2591V6.85715C73.9845 6.59547 74.1881 6.3992 74.3916 6.33378C75.4095 6.00668 76.4274 5.81042 77.5131 5.81042C79.9559 5.81042 81.6523 7.24968 81.6523 9.47399V11.0441ZM79.2095 9.34314C79.2095 8.29641 78.4631 7.77304 77.4452 7.77304C76.8345 7.77304 76.4273 7.9693 76.4273 7.9693V12.2871C76.8345 12.4833 77.0381 12.5488 77.5131 12.5488C78.5309 12.5488 79.2773 11.96 79.2773 10.9787V9.34314H79.2095Z" fill="#4F535E"/>
<path fill-rule="evenodd" clip-rule="evenodd" d="M15.2126 0.547009C21.7411 2.03323 25.7838 8.34043 24.2422 14.6345C22.7006 20.9287 16.1586 24.8262 9.63013 23.34C3.10166 21.8538 -0.941031 15.5466 0.600525 9.25247C2.14208 2.95836 8.68413 -0.939209 15.2126 0.547009ZM17.0528 8.03776C17.5278 8.03776 17.9349 8.43029 17.9349 8.88823V9.54244C17.9349 9.7387 17.7992 9.86955 17.5956 9.86955H16.0349V19.2247C16.0349 19.421 15.8314 19.6173 15.6278 19.6173H14.6778C14.0671 19.6173 13.5921 19.1593 13.5921 18.5705V16.4771C12.9135 16.7387 12.3707 16.8042 11.6921 16.8042C9.52069 16.8042 8.23142 15.4303 8.23142 13.0752V9.93497H7.28142C6.80642 9.93497 6.39928 9.54244 6.39928 9.08449V8.43029C6.39928 8.23402 6.535 8.10318 6.73857 8.10318H12.9135L8.84213 4.37419C8.70641 4.24335 8.77427 3.98167 8.97784 3.91624L10.2671 3.52372C10.81 3.39288 11.3528 3.52372 11.6921 3.91624L15.4242 8.03776H17.0528ZM10.6064 13.0752C10.6064 14.2527 11.1493 14.7761 12.235 14.7761C12.6421 14.7761 13.185 14.7107 13.5921 14.5144V9.93497H10.6064V13.0752Z" fill="#4F535E"/>
</g>
<defs>
<clipPath id="clip0_8931_856">
<rect width="90" height="24" fill="white"/>
</clipPath>
</defs>
</svg>
