<svg width="68" height="24" viewBox="0 0 68 24" fill="none" xmlns="http://www.w3.org/2000/svg">
<g clip-path="url(#clip0_8931_435)">
<path d="M24.7851 9.58726C24.6055 9.52638 24.2263 9.48578 23.847 9.48578C22.7092 9.48578 21.4916 10.4226 21.4916 11.5791V17.0944H18.8967V7.25395H21.3918V8.24812C21.9707 7.5177 23.0285 7.05103 24.2063 7.05103C24.5008 7.05318 24.7945 7.08033 25.0846 7.13218L24.7851 9.58726Z" fill="#4F535E"/>
<path d="M27.7193 2.08008C28.6574 2.08008 29.4159 2.8105 29.4159 3.76412C29.4159 4.71775 28.6575 5.44811 27.7193 5.44811C26.7811 5.44811 26.0226 4.71775 26.0226 3.76412C26.0226 2.8105 26.7811 2.08008 27.7193 2.08008ZM29.0167 17.0944H26.4218V7.25393H29.0167V17.0943V17.0944Z" fill="#4F535E"/>
<path d="M36.6819 7.05053C35.6521 7.03728 34.6498 7.38915 33.8476 8.04565V7.25385H31.3519V21.9633H33.947V16.4047C34.6851 16.9973 35.6018 17.3127 36.5422 17.2976C37.9795 17.2976 39.3564 16.6478 40.2147 15.6333C40.9736 14.7404 41.4319 13.5237 41.4319 12.1843C41.4319 9.28283 39.3162 7.05053 36.6819 7.05053ZM36.3665 14.9028C34.7546 14.9028 33.6952 13.7722 33.6952 12.1929C33.6952 10.6136 34.7546 9.48292 36.3665 9.48292C37.7424 9.48292 38.8579 10.6964 38.8579 12.1929C38.8579 13.6893 37.7424 14.9028 36.3665 14.9028Z" fill="#4F535E"/>
<path d="M57.1812 17.0943H54.5862V2.68872H57.1812V17.0944V17.0943Z" fill="#4F535E"/>
<path d="M67.7604 15.532C66.8223 16.6683 65.2852 17.2972 63.7882 17.2972C60.8939 17.2972 58.7181 15.2684 58.7181 12.1843C58.7181 9.44522 60.5546 7.05103 63.4289 7.05103C66.1037 7.05103 68 9.34374 68 12.0828C68.0015 12.3344 67.9814 12.5856 67.94 12.8336H61.2332C61.373 14.2132 62.4708 15.1669 63.8482 15.1669C64.9459 15.1669 65.8242 14.5379 66.2833 14.0306L67.7604 15.532ZM65.3452 10.9061C65.2653 10.0336 64.4869 9.18146 63.4289 9.18146C62.351 9.18146 61.4728 10.0134 61.353 10.9061H65.3452Z" fill="#4F535E"/>
<path d="M48.2992 7.05053C47.2694 7.03729 46.2672 7.38916 45.4649 8.04565V7.25385H42.9692V21.9633H45.5644V16.4047C46.3024 16.9973 47.2191 17.3127 48.1595 17.2976C49.5968 17.2976 50.9737 16.6478 51.8321 15.6333C52.5909 14.7404 53.0492 13.5237 53.0492 12.1843C53.0492 9.28283 50.9335 7.05053 48.2992 7.05053ZM47.9838 14.9028C46.3719 14.9028 45.3125 13.7722 45.3125 12.1929C45.3125 10.6136 46.3719 9.48291 47.9838 9.48291C49.3597 9.48291 50.4752 10.6964 50.4752 12.1929C50.4752 13.6893 49.3597 14.9028 47.9838 14.9028Z" fill="#4F535E"/>
<path d="M13.5473 13.5093C12.9614 13.1654 12.3017 13.0657 11.6481 13.0425C11.0998 13.0231 10.2818 12.6659 10.2818 11.6521C10.2818 10.8967 10.8842 10.2887 11.6484 10.2616C12.3019 10.2384 12.9616 10.1386 13.5473 9.79489C14.0734 9.48612 14.5104 9.04203 14.8141 8.50723C15.1179 7.97243 15.2778 7.36578 15.2778 6.74825C15.2778 6.13072 15.1179 5.52407 14.8141 4.98928C14.5103 4.45448 14.0734 4.01039 13.5473 3.70163C13.0211 3.39288 12.4243 3.23033 11.8168 3.23035C11.2093 3.23036 10.6125 3.39292 10.0863 3.7017C9.56021 4.01048 9.12332 4.45459 8.81957 4.9894C8.51582 5.5242 8.35593 6.13086 8.35595 6.74839C8.35595 7.42998 8.59444 8.05722 8.89875 8.63897C9.15469 9.12826 9.28418 10.0364 8.40637 10.5515C7.75338 10.9347 6.93844 10.6921 6.53138 10.0299C6.18755 9.4706 5.77248 8.94655 5.19137 8.60545C4.66524 8.29669 4.06843 8.13414 3.46091 8.13414C2.8534 8.13413 2.25658 8.29668 1.73046 8.60544C1.20433 8.9142 0.767433 9.3583 0.463674 9.89309C0.159916 10.4279 0 11.0345 0 11.652C0 12.2696 0.159916 12.8762 0.463674 13.411C0.767433 13.9458 1.20433 14.3899 1.73046 14.6986C2.25658 15.0074 2.8534 15.17 3.46091 15.1699C4.06843 15.1699 4.66524 15.0074 5.19137 14.6986C5.77232 14.3577 6.18742 13.834 6.53104 13.275C6.81321 12.816 7.51792 12.2309 8.40634 12.7527C9.05834 13.1356 9.2599 13.9746 8.89845 14.6656C8.59418 15.2472 8.35599 15.8743 8.35599 16.5558C8.356 17.1733 8.51591 17.78 8.81966 18.3148C9.12342 18.8495 9.56031 19.2936 10.0864 19.6024C10.6125 19.9111 11.2094 20.0737 11.8169 20.0737C12.4244 20.0737 13.0212 19.9111 13.5473 19.6024C14.0734 19.2936 14.5103 18.8495 14.8141 18.3148C15.1178 17.78 15.2777 17.1733 15.2777 16.5558C15.2777 15.9383 15.1178 15.3317 14.8141 14.7969C14.5103 14.2621 14.0734 13.818 13.5473 13.5093Z" fill="#4F535E"/>
</g>
<defs>
<clipPath id="clip0_8931_435">
<rect width="68" height="24" fill="white"/>
</clipPath>
</defs>
</svg>
