<svg width="147" height="50" fill="none" xmlns="http://www.w3.org/2000/svg"><path d="M105.198 12.006a6 6 0 006.003-6.003A6 6 0 00105.198 0a5.999 5.999 0 00-6.003 6.003 5.999 5.999 0 006.003 6.003zM59.175 15.25c-.268.684-2.22 6.199-6.954 11.909V2.733l-12.567 2.49v44.289H52.22v-13.69c3.636 5.466 5.441 13.69 5.441 13.69h15.056c-1.488-6.198-8.004-17.618-8.004-17.618 5.857-7.419 8.42-15.325 8.834-16.618H59.175v-.025zm33.065-.463c-11.274.366-16.984 5.417-16.984 15.47v19.254h12.275v-15.69c0-6.028.78-8.59 7.93-8.834V14.983c-1.195-.269-3.22-.195-3.22-.195zm-73.694 5.344c-1.538-.098-5.1-.342-5.1-3.539 0-3.88 5.124-3.88 7.052-3.88 3.392 0 7.784 1.001 10.908 1.928 0 0 1.757.61 3.245 1.245l.146.049V5.32l-.195-.05c-3.709-1.292-8.004-2.537-15.983-2.537C4.88 2.733 0 10.737 0 17.593c0 3.954 1.684 13.251 17.423 14.325 1.342.073 4.88.293 4.88 3.611 0 2.734-2.903 4.344-7.784 4.344-5.344 0-10.517-1.366-13.665-2.66v10.932C5.564 49.39 10.884 50 17.106 50c13.445 0 19.448-7.565 19.448-15.08.025-8.493-6.71-14.032-18.008-14.788zm80.551 29.38h12.201V15.3h-12.2v34.212zm35.139-44.607v44.583h12.201V2.733l-12.201 2.172zm-17.789 0l12.177-2.172v46.779h-12.177V4.905z" fill="#656777"/></svg>