<svg width="62" height="24" viewBox="0 0 62 24" fill="none" xmlns="http://www.w3.org/2000/svg">
<path d="M1.82043 19.3703H2.25745L1.85135 21.0586C1.79108 21.3091 1.80244 21.4977 1.88574 21.6235C1.96873 21.7494 2.12318 21.8124 2.34895 21.8124C2.5733 21.8124 2.75726 21.7494 2.90098 21.6235C3.04487 21.4977 3.14694 21.3091 3.20721 21.0586L3.61315 19.3703H4.05585L3.63981 21.1004C3.54941 21.4763 3.38833 21.7578 3.15767 21.9443C2.92686 22.1312 2.62426 22.2245 2.24987 22.2245C1.87517 22.2245 1.61817 22.1314 1.47823 21.9453C1.33813 21.7593 1.31368 21.4776 1.40439 21.1004L1.82043 19.3703Z" fill="#4F535E"/>
<path d="M3.99683 22.1505L4.69195 19.2602L6.01279 20.9598C6.04813 21.0077 6.08378 21.0591 6.11897 21.1136C6.15415 21.1681 6.19012 21.2293 6.22704 21.2978L6.69072 19.3703H7.09981L6.40516 22.2584L5.05656 20.5285C5.02043 20.4818 4.98682 20.4325 4.95543 20.3805C4.92371 20.3285 4.89516 20.274 4.86897 20.2172L4.40403 22.1505H3.99683Z" fill="#4F535E"/>
<path d="M7.06384 22.1506L7.73246 19.3704H8.17485L7.50638 22.1506H7.06384Z" fill="#4F535E"/>
<path d="M8.1427 22.1506L8.81132 19.3704H10.3306L10.2383 19.7539H9.16157L8.99481 20.4471H10.0716L9.97628 20.8439H8.89936L8.58524 22.1506H8.1427Z" fill="#4F535E"/>
<path d="M10.149 22.1506L10.8177 19.3704H11.2601L10.5916 22.1506H10.149Z" fill="#4F535E"/>
<path d="M11.228 22.1506L11.8966 19.3704H13.416L13.3237 19.7539H12.2469L12.0792 20.4508H13.156L13.0607 20.8478H11.9839L11.7678 21.7461H12.8445L12.7473 22.1506H11.228Z" fill="#4F535E"/>
<path d="M13.7956 21.7422H14.1676C14.372 21.7422 14.5289 21.7282 14.6379 21.7004C14.7469 21.6726 14.8469 21.6256 14.9386 21.5598C15.0631 21.4702 15.167 21.3584 15.2506 21.2247C15.3341 21.0912 15.3974 20.9356 15.44 20.7583C15.4824 20.581 15.4941 20.4259 15.4748 20.2925C15.4554 20.1587 15.4053 20.0471 15.324 19.9571C15.263 19.8914 15.1823 19.8443 15.0817 19.8164C14.9809 19.7887 14.8168 19.7748 14.5887 19.7748H14.4287H14.2687L13.7956 21.7422ZM13.2549 22.1506L13.9235 19.3702H14.5203C14.9085 19.3702 15.1767 19.39 15.3253 19.4299C15.4736 19.4699 15.5962 19.5368 15.6926 19.6304C15.8205 19.7532 15.9019 19.9109 15.9369 20.1031C15.9718 20.2957 15.9595 20.5154 15.9002 20.7622C15.8409 21.0091 15.7476 21.2279 15.6205 21.4184C15.4936 21.609 15.3363 21.7662 15.1492 21.8903C15.0077 21.984 14.8559 22.0508 14.6947 22.0908C14.533 22.1305 14.2919 22.1506 13.9707 22.1506H13.8516H13.2549Z" fill="#4F535E"/>
<path d="M18.0552 20.5326H18.1688C18.4142 20.5326 18.5844 20.5052 18.6794 20.4508C18.7745 20.3965 18.8384 20.3002 18.8715 20.1622C18.9072 20.0141 18.8887 19.9095 18.8158 19.8489C18.7429 19.7881 18.5896 19.7575 18.3553 19.7575H18.2417L18.0552 20.5326ZM17.9383 20.9026L17.6382 22.1506H17.2236L17.8924 19.3704H18.5618C18.7601 19.3704 18.9036 19.3814 18.9919 19.4035C19.0799 19.4255 19.1527 19.4621 19.2101 19.5128C19.28 19.5774 19.3259 19.6644 19.348 19.7738C19.3699 19.8834 19.3652 20.004 19.3336 20.1355C19.3018 20.2672 19.2484 20.3888 19.1733 20.5003C19.0982 20.6116 19.0102 20.6991 18.9095 20.7622C18.8278 20.813 18.7377 20.8491 18.639 20.8704C18.5401 20.8921 18.3916 20.9026 18.1933 20.9026H18.106H17.9383Z" fill="#4F535E"/>
<path d="M19.88 21.0586H20.6387L20.512 20.4242C20.506 20.3838 20.5003 20.3373 20.4954 20.2847C20.4909 20.2321 20.4877 20.1735 20.4856 20.109C20.4563 20.1698 20.4268 20.2264 20.3973 20.2791C20.368 20.3315 20.3394 20.3799 20.3113 20.4242L19.88 21.0586ZM20.8411 22.1505L20.7043 21.4346H19.6257L19.1374 22.1505H18.6727L20.686 19.2602L21.3078 22.1505H20.8411Z" fill="#4F535E"/>
<path d="M21.9419 22.1506L22.2477 20.8781L21.6936 19.3704H22.1585L22.5025 20.3142C22.5104 20.3384 22.5198 20.3699 22.5307 20.4092C22.5418 20.4485 22.5525 20.4907 22.5626 20.5364C22.5904 20.4921 22.6189 20.45 22.6475 20.4109C22.676 20.3717 22.7049 20.3357 22.7341 20.3027L23.5439 19.3704H23.9866L22.6866 20.8781L22.3807 22.1506H21.9419Z" fill="#4F535E"/>
<path d="M26.165 20.7774C26.1652 20.7559 26.1715 20.6965 26.1838 20.599C26.1933 20.518 26.2007 20.4508 26.206 20.3975C26.1797 20.461 26.1486 20.5244 26.113 20.5875C26.0771 20.6508 26.0361 20.7154 25.9893 20.7813L24.9207 22.2627L24.572 20.751C24.5572 20.6888 24.5458 20.6287 24.5383 20.5706C24.5307 20.5123 24.5255 20.4547 24.523 20.3975C24.5078 20.4559 24.4886 20.5169 24.4651 20.5809C24.4416 20.6449 24.4135 20.7118 24.3805 20.7813L23.7592 22.1506H23.3522L24.6924 19.2524L25.0739 21.0073C25.0794 21.0351 25.0875 21.0814 25.0972 21.146C25.107 21.2105 25.1185 21.2903 25.132 21.3851C25.1771 21.3054 25.2421 21.2042 25.3276 21.0814C25.3503 21.0485 25.3677 21.0232 25.3793 21.0054L26.5858 19.2524L26.5471 22.1506H26.136L26.165 20.7774Z" fill="#4F535E"/>
<path d="M26.9001 22.1506L27.5689 19.3704H29.0882L28.9959 19.7539H27.919L27.7515 20.4508H28.8282L28.7329 20.8478H27.656L27.44 21.7461H28.5168L28.4193 22.1506H26.9001Z" fill="#4F535E"/>
<path d="M28.9272 22.1505L29.6224 19.2602L30.9432 20.9598C30.9786 21.0077 31.0142 21.0591 31.0494 21.1136C31.0846 21.1681 31.1205 21.2293 31.1575 21.2978L31.6211 19.3703H32.0304L31.3356 22.2584L29.987 20.5285C29.9508 20.4818 29.9172 20.4325 29.8858 20.3805C29.8541 20.3285 29.8256 20.274 29.7994 20.2172L29.3344 22.1505H28.9272Z" fill="#4F535E"/>
<path d="M33.4424 19.7539L32.8661 22.1506H32.4236L32.9997 19.7539H32.2764L32.3687 19.3704H34.2543L34.1622 19.7539H33.4424Z" fill="#4F535E"/>
<path d="M33.9018 21.5941L34.2953 21.4272C34.2992 21.5511 34.3377 21.6458 34.4113 21.7109C34.4848 21.7763 34.591 21.8088 34.7301 21.8088C34.8614 21.8088 34.975 21.7714 35.0703 21.6966C35.1657 21.622 35.2287 21.522 35.2588 21.3967C35.2981 21.2332 35.2001 21.0876 34.9658 20.96C34.933 20.941 34.9078 20.927 34.8904 20.918C34.6261 20.7687 34.4586 20.6335 34.3879 20.5125C34.3174 20.3916 34.3029 20.2438 34.3448 20.0692C34.3993 19.8426 34.5189 19.659 34.7033 19.5185C34.8877 19.3779 35.102 19.3076 35.3464 19.3076C35.5472 19.3076 35.7058 19.3471 35.8217 19.4263C35.9378 19.5056 36.0041 19.6191 36.0205 19.7672L35.631 19.9496C35.5972 19.8622 35.5527 19.7983 35.4975 19.7576C35.4421 19.7171 35.3721 19.6969 35.288 19.6969C35.169 19.6969 35.0668 19.7288 34.9814 19.7917C34.8966 19.8552 34.8409 19.94 34.8152 20.0464C34.7751 20.2135 34.8914 20.3692 35.1641 20.5135C35.1851 20.5248 35.2015 20.5339 35.2134 20.5402C35.4521 20.6666 35.6073 20.7905 35.6785 20.9114C35.7498 21.0325 35.7638 21.1834 35.7201 21.3643C35.6568 21.6279 35.5254 21.837 35.3257 21.992C35.126 22.147 34.8877 22.2246 34.6115 22.2246C34.3794 22.2246 34.2025 22.1703 34.0807 22.0613C33.9586 21.9525 33.899 21.7968 33.9018 21.5941Z" fill="#4F535E"/>
<path d="M37.1719 22.1506L37.8405 19.3704H38.283L37.6144 22.1506H37.1719Z" fill="#4F535E"/>
<path d="M38.2499 22.1507L38.945 19.2603L40.2658 20.96C40.3012 21.0079 40.3368 21.0592 40.372 21.1137C40.4072 21.1682 40.4432 21.2295 40.4801 21.2979L40.9438 19.3704H41.3529L40.6582 22.2585L39.3096 20.5286C39.2735 20.4819 39.2397 20.4326 39.2083 20.3806C39.1768 20.3287 39.1481 20.2742 39.1219 20.2173L38.6571 22.1507H38.2499Z" fill="#4F535E"/>
<path d="M42.7652 19.7539L42.1887 22.1506H41.7463L42.3225 19.7539H41.5991L41.6914 19.3704H43.5771L43.4849 19.7539H42.7652Z" fill="#4F535E"/>
<path d="M43.2473 22.1506L43.9159 19.3704H45.4352L45.3431 19.7539H44.2663L44.0986 20.4508H45.1754L45.08 20.8478H44.0032L43.7872 21.7461H44.864L44.7666 22.1506H43.2473Z" fill="#4F535E"/>
<path d="M46.1005 20.5551H46.1807C46.4148 20.5551 46.5771 20.5275 46.6674 20.4717C46.7576 20.416 46.8201 20.3174 46.8539 20.1754C46.8908 20.0223 46.8756 19.9142 46.808 19.8517C46.7409 19.7888 46.5956 19.7575 46.3725 19.7575H46.2924L46.1005 20.5551ZM45.9882 20.9064L45.6889 22.1505H45.2743L45.9431 19.3703H46.5604C46.7414 19.3703 46.8789 19.3822 46.9728 19.4064C47.0668 19.4304 47.1426 19.4701 47.1998 19.526C47.268 19.5929 47.3122 19.6799 47.3327 19.7863C47.3527 19.8924 47.3475 20.0089 47.3172 20.1354C47.2637 20.3582 47.1691 20.5327 47.0334 20.6588C46.8977 20.7846 46.7239 20.8604 46.512 20.8855L47.1453 22.1505H46.6448L46.0384 20.9064H45.9882Z" fill="#4F535E"/>
<path d="M47.4072 22.1506L48.0758 19.3704H49.5952L49.503 19.7539H48.4261L48.2593 20.4471H49.3363L49.2408 20.8439H48.164L47.8498 22.1506H47.4072Z" fill="#4F535E"/>
<path d="M50.1086 21.0586H50.8675L50.7408 20.4242C50.7346 20.3838 50.7291 20.3373 50.7242 20.2847C50.7196 20.2321 50.7165 20.1735 50.7144 20.109C50.6849 20.1698 50.6554 20.2264 50.6261 20.2791C50.5967 20.3315 50.568 20.3799 50.5399 20.4242L50.1086 21.0586ZM51.0699 22.1505L50.9331 21.4346H49.8544L49.3662 22.1505H48.9014L50.9146 19.2602L51.5366 22.1505H51.0699Z" fill="#4F535E"/>
<path d="M54.4168 20.0463C54.3179 19.9375 54.2052 19.8558 54.0787 19.8013C53.9525 19.7472 53.8124 19.7197 53.6586 19.7197C53.3612 19.7197 53.0955 19.8172 52.8622 20.0121C52.6285 20.2071 52.4745 20.4597 52.3999 20.77C52.3278 21.0701 52.3592 21.3174 52.4939 21.5123C52.6287 21.7074 52.8344 21.805 53.1107 21.805C53.272 21.805 53.4323 21.7758 53.592 21.7176C53.7517 21.6593 53.9127 21.5714 54.0748 21.4534L53.9519 21.9644C53.8119 22.0517 53.6666 22.1171 53.5163 22.1599C53.3658 22.203 53.2088 22.2245 53.0452 22.2245C52.8369 22.2245 52.6526 22.1898 52.4928 22.1201C52.3329 22.0505 52.2021 21.9481 52.1009 21.8124C52.0003 21.6796 51.9357 21.523 51.9081 21.3424C51.8801 21.1621 51.8906 20.9699 51.9395 20.7659C51.9886 20.5622 52.0705 20.3708 52.1849 20.1916C52.2991 20.0124 52.4403 19.855 52.6078 19.7197C52.776 19.5829 52.9559 19.4796 53.1474 19.4091C53.3391 19.339 53.5368 19.3037 53.7401 19.3037C53.9001 19.3037 54.0468 19.3275 54.1805 19.3751C54.3141 19.4224 54.4375 19.4942 54.5509 19.5907L54.4168 20.0463Z" fill="#4F535E"/>
<path d="M54.4596 22.1506L55.1282 19.3704H56.6475L56.5552 19.7539H55.4786L55.3109 20.4508H56.3877L56.2922 20.8478H55.2155L54.9995 21.7461H56.0762L55.9789 22.1506H54.4596Z" fill="#4F535E"/>
<path d="M46.3876 16.9475H43.3453L47.5764 1.73728H50.6188L46.3876 16.9475Z" fill="#4F535E"/>
<path d="M44.8087 2.21821C44.5978 1.92878 44.2724 1.78273 43.8305 1.78273H27.1014L26.2728 4.7618H29.3168V4.76008H41.4916L40.6059 7.94361H28.4308L28.4319 7.93702H25.3892L22.8638 17.012H25.9081L27.6028 10.921H41.2886C41.716 10.921 42.1183 10.7759 42.4966 10.4856C42.8741 10.1951 43.1226 9.83691 43.2417 9.40912L44.9363 3.31687C45.06 2.87479 45.0173 2.50795 44.8087 2.21821Z" fill="#4F535E"/>
<path d="M21.0909 15.9981C20.9229 16.6003 20.372 17.017 19.7439 17.017H4.04737C3.61966 17.017 3.30176 16.8719 3.09271 16.582C2.88383 16.2918 2.83902 15.9328 2.95845 15.5051L6.78844 1.78177H9.83352L6.41263 14.0388H18.5933L22.0142 1.78177H25.0586L21.0909 15.9981Z" fill="#4F535E"/>
<path d="M55.8733 1.76582L59.725 9.39064L51.6281 17.0134L55.8733 1.76582Z" fill="#4F535E"/>
<path d="M53.1733 1.76569L57.0222 9.39052L48.9219 17.0133L53.1733 1.76569Z" fill="#4F535E"/>
</svg>
