<svg width="87" height="24" viewBox="0 0 87 24" fill="none" xmlns="http://www.w3.org/2000/svg">
<path fill-rule="evenodd" clip-rule="evenodd" d="M24 12C24 18.65 18.65 24 12 24C5.34996 24 0 18.65 0 12C0 5.34996 5.34996 0 12 0C18.65 0 24 5.34996 24 12ZM9.45001 19.15C5.55001 17.75 3.54997 13.4 5.00005 9.54996C5.75005 7.44996 7.40005 5.85 9.45001 5.1C9.65005 5.00004 9.75001 4.85004 9.75001 4.59996V3.9C9.75001 3.69996 9.65005 3.54996 9.45001 3.50004C9.39997 3.50004 9.30001 3.50004 9.24997 3.54996C4.50001 5.04996 1.89997 10.1 3.39997 14.85C4.29997 17.65 6.45001 19.8 9.24997 20.7C9.45001 20.8 9.65005 20.7 9.69997 20.5C9.75001 20.45 9.75001 20.4 9.75001 20.3V19.6C9.75001 19.45 9.60001 19.25 9.45001 19.15ZM14.75 3.54996C14.55 3.45 14.35 3.54996 14.3001 3.75C14.25 3.80004 14.25 3.84996 14.25 3.95004V4.65C14.25 4.85004 14.4 5.04996 14.55 5.15004C18.45 6.54996 20.4501 10.9 19 14.75C18.25 16.85 16.6 18.45 14.55 19.2C14.35 19.3 14.25 19.45 14.25 19.7V20.4C14.25 20.6 14.35 20.75 14.55 20.8C14.6 20.8 14.7 20.8 14.75 20.75C19.5 19.25 22.1 14.2 20.6 9.45C19.7001 6.6 17.5 4.44996 14.75 3.54996ZM15.3 13.9C15.3 12.15 14.25 11.55 12.15 11.3001C10.65 11.1 10.35 10.7001 10.35 9.99998C10.35 9.2999 10.85 8.85002 11.85 8.85002C12.75 8.85002 13.25 9.15002 13.5 9.90002C13.55 10.05 13.7 10.15 13.85 10.15H14.65C14.85 10.15 15 9.99998 15 9.80006V9.75002C14.8 8.64998 13.9 7.80002 12.75 7.70006V6.50006C12.75 6.30002 12.6 6.15002 12.35 6.09998H11.6C11.4 6.09998 11.25 6.24998 11.2 6.50006V7.65002C9.69995 7.85006 8.75003 8.85002 8.75003 10.1001C8.75003 11.7501 9.74999 12.4 11.85 12.6501C13.25 12.9 13.7 13.2 13.7 14.0001C13.7 14.8001 13 15.3501 12.05 15.3501C10.75 15.3501 10.3 14.8 10.15 14.05C10.1 13.8501 9.95003 13.75 9.80003 13.75H8.94995C8.75003 13.75 8.60003 13.9 8.60003 14.1V14.1501C8.79995 15.4 9.59999 16.3 11.25 16.5501V17.7501C11.25 17.95 11.4 18.1 11.65 18.15H12.4C12.6 18.15 12.75 18 12.8 17.7501V16.5501C14.3 16.3 15.3 15.25 15.3 13.9Z" fill="#4F535E"/>
<path d="M81.2448 12.4735V16.8139H79.499V9.40627H81.1677V10.665H81.2545C81.4249 10.2502 81.6966 9.92069 82.0695 9.67634C82.4457 9.43199 82.9103 9.30981 83.4633 9.30981C83.9745 9.30981 84.4198 9.41913 84.7992 9.63776C85.1818 9.85639 85.4776 10.1731 85.6866 10.5878C85.8988 11.0026 86.0032 11.5058 86 12.0973V16.8139H84.2542V12.3674C84.2542 11.8723 84.1256 11.4849 83.8684 11.2051C83.6144 10.9254 83.2623 10.7856 82.8122 10.7856C82.5068 10.7856 82.2351 10.8531 81.9972 10.9881C81.7625 11.1199 81.5776 11.3112 81.4426 11.562C81.3108 11.8128 81.2448 12.1166 81.2448 12.4735Z" fill="#4F535E"/>
<path d="M75.9578 16.8139V9.40627H77.7036V16.8139H75.9578ZM76.8355 8.35492C76.559 8.35492 76.3211 8.26329 76.1218 8.08002C75.9224 7.89354 75.8228 7.67009 75.8228 7.40967C75.8228 7.14603 75.9224 6.92257 76.1218 6.73931C76.3211 6.55283 76.559 6.45959 76.8355 6.45959C77.1152 6.45959 77.3532 6.55283 77.5493 6.73931C77.7486 6.92257 77.8483 7.14603 77.8483 7.40967C77.8483 7.67009 77.7486 7.89354 77.5493 8.08002C77.3532 8.26329 77.1152 8.35492 76.8355 8.35492Z" fill="#4F535E"/>
<path d="M70.9266 16.9586C70.2032 16.9586 69.5762 16.7995 69.0457 16.4812C68.5152 16.1629 68.1037 15.7176 67.8111 15.1453C67.5218 14.573 67.3771 13.9042 67.3771 13.139C67.3771 12.3738 67.5218 11.7035 67.8111 11.128C68.1037 10.5525 68.5152 10.1056 69.0457 9.78726C69.5762 9.46896 70.2032 9.30981 70.9266 9.30981C71.65 9.30981 72.2769 9.46896 72.8074 9.78726C73.3379 10.1056 73.7479 10.5525 74.0372 11.128C74.3298 11.7035 74.4761 12.3738 74.4761 13.139C74.4761 13.9042 74.3298 14.573 74.0372 15.1453C73.7479 15.7176 73.3379 16.1629 72.8074 16.4812C72.2769 16.7995 71.65 16.9586 70.9266 16.9586ZM70.9362 15.56C71.3285 15.56 71.6564 15.4523 71.9201 15.2369C72.1837 15.0183 72.3798 14.7257 72.5084 14.3592C72.6402 13.9927 72.7062 13.5843 72.7062 13.1342C72.7062 12.6809 72.6402 12.271 72.5084 11.9044C72.3798 11.5347 72.1837 11.2405 71.9201 11.0219C71.6564 10.8032 71.3285 10.6939 70.9362 10.6939C70.5343 10.6939 70.2 10.8032 69.9331 11.0219C69.6695 11.2405 69.4717 11.5347 69.3399 11.9044C69.2113 12.271 69.147 12.6809 69.147 13.1342C69.147 13.5843 69.2113 13.9927 69.3399 14.3592C69.4717 14.7257 69.6695 15.0183 69.9331 15.2369C70.2 15.4523 70.5343 15.56 70.9362 15.56Z" fill="#4F535E"/>
<path d="M66.1341 10.2695H64.3304C64.2789 9.97373 64.1841 9.7117 64.0458 9.48342C63.9076 9.25193 63.7356 9.05581 63.5298 8.89505C63.324 8.7343 63.0893 8.61373 62.8257 8.53335C62.5653 8.44976 62.2839 8.40796 61.9817 8.40796C61.4448 8.40796 60.9689 8.543 60.5542 8.81307C60.1394 9.07992 59.8147 9.47217 59.58 9.98981C59.3453 10.5042 59.2279 11.1328 59.2279 11.8755C59.2279 12.631 59.3453 13.2676 59.58 13.7853C59.8179 14.2997 60.1427 14.6887 60.5542 14.9524C60.9689 15.2128 61.4432 15.343 61.9769 15.343C62.2727 15.343 62.5492 15.3044 62.8064 15.2273C63.0668 15.1469 63.2999 15.0295 63.5057 14.8752C63.7147 14.7209 63.8899 14.5312 64.0314 14.3061C64.176 14.0811 64.2757 13.8239 64.3304 13.5345L66.1341 13.5441C66.0665 14.0135 65.9202 14.454 65.6952 14.8656C65.4733 15.2771 65.1824 15.6404 64.8223 15.9555C64.4622 16.2674 64.041 16.5117 63.5587 16.6885C63.0765 16.8622 62.5411 16.949 61.9528 16.949C61.0847 16.949 60.3098 16.748 59.6282 16.3461C58.9466 15.9442 58.4097 15.3639 58.0174 14.6051C57.6252 13.8464 57.4291 12.9365 57.4291 11.8755C57.4291 10.8113 57.6268 9.90139 58.0223 9.14584C58.4177 8.38706 58.9563 7.80673 59.6379 7.40484C60.3195 7.00295 61.0911 6.802 61.9528 6.802C62.5026 6.802 63.0138 6.87917 63.4864 7.03349C63.959 7.18782 64.3802 7.41449 64.7499 7.71349C65.1197 8.00929 65.4235 8.3726 65.6614 8.80342C65.9026 9.23104 66.0601 9.71974 66.1341 10.2695Z" fill="#4F535E"/>
<path d="M51.1861 16.814H47.8391V6.93713H51.2536C52.2342 6.93713 53.0766 7.13486 53.7807 7.53033C54.488 7.92257 55.0314 8.48683 55.4108 9.22309C55.7901 9.95936 55.9798 10.8403 55.9798 11.8659C55.9798 12.8948 55.7885 13.7789 55.4059 14.5184C55.0265 15.2579 54.4784 15.8254 53.7614 16.2208C53.0476 16.6163 52.1892 16.814 51.1861 16.814ZM49.6283 15.2659H51.0993C51.7873 15.2659 52.3612 15.1406 52.821 14.8898C53.2807 14.6358 53.6264 14.258 53.8578 13.7564C54.0893 13.2517 54.2051 12.6215 54.2051 11.8659C54.2051 11.1104 54.0893 10.4834 53.8578 9.98508C53.6264 9.48352 53.2839 9.10896 52.8306 8.86139C52.3805 8.61061 51.8211 8.48522 51.1523 8.48522H49.6283V15.2659Z" fill="#4F535E"/>
<path d="M44.3871 9.65222C44.3421 9.23104 44.1524 8.90309 43.8181 8.66839C43.4869 8.43368 43.0561 8.31633 42.5256 8.31633C42.1526 8.31633 41.8327 8.3726 41.5659 8.48513C41.299 8.59765 41.0948 8.75037 40.9534 8.94328C40.8119 9.13619 40.7396 9.35643 40.7364 9.60399C40.7364 9.80976 40.783 9.9882 40.8762 10.1393C40.9727 10.2904 41.1029 10.419 41.2669 10.5251C41.4308 10.628 41.6125 10.7148 41.8118 10.7856C42.0112 10.8563 42.2121 10.9158 42.4147 10.964L43.3406 11.1955C43.7136 11.2823 44.0721 11.3996 44.4161 11.5475C44.7633 11.6954 45.0736 11.8819 45.3469 12.107C45.6234 12.332 45.842 12.6037 46.0027 12.922C46.1635 13.2403 46.2439 13.6133 46.2439 14.0409C46.2439 14.6196 46.096 15.1292 45.8002 15.5697C45.5044 16.0069 45.0768 16.3493 44.5174 16.5969C43.9611 16.8413 43.2876 16.9634 42.4966 16.9634C41.7282 16.9634 41.0611 16.8445 40.4952 16.6066C39.9326 16.3686 39.4921 16.0214 39.1738 15.5649C38.8587 15.1083 38.6883 14.5521 38.6626 13.8962H40.4229C40.4486 14.2402 40.5547 14.5264 40.7412 14.7546C40.9277 14.9829 41.1704 15.1533 41.4694 15.2658C41.7716 15.3784 42.1092 15.4346 42.4822 15.4346C42.8712 15.4346 43.212 15.3768 43.5046 15.261C43.8004 15.1421 44.0319 14.9781 44.1991 14.7691C44.3662 14.5569 44.4514 14.3093 44.4547 14.0264C44.4514 13.7692 44.3759 13.557 44.228 13.3898C44.0801 13.2194 43.8727 13.0779 43.6059 12.9654C43.3422 12.8497 43.0336 12.7468 42.6799 12.6568L41.5562 12.3674C40.7428 12.1584 40.0998 11.8417 39.6271 11.4173C39.1577 10.9897 38.923 10.4222 38.923 9.71491C38.923 9.13297 39.0806 8.62338 39.3956 8.18612C39.7139 7.74886 40.1464 7.40966 40.693 7.16853C41.2395 6.92418 41.8584 6.802 42.5497 6.802C43.2506 6.802 43.8647 6.92418 44.392 7.16853C44.9225 7.40966 45.3388 7.74564 45.641 8.17647C45.9433 8.60408 46.0992 9.096 46.1088 9.65222H44.3871Z" fill="#4F535E"/>
<path d="M35.2856 6.93713H37.0748V13.3899C37.0748 14.0972 36.9076 14.7194 36.5732 15.2563C36.2421 15.7932 35.7759 16.2128 35.1746 16.515C34.5734 16.814 33.8709 16.9635 33.0671 16.9635C32.2601 16.9635 31.556 16.814 30.9548 16.515C30.3535 16.2128 29.8873 15.7932 29.5562 15.2563C29.225 14.7194 29.0594 14.0972 29.0594 13.3899V6.93713H30.8487V13.2404C30.8487 13.6519 30.9387 14.0185 31.1187 14.34C31.302 14.6615 31.5592 14.9139 31.8904 15.0971C32.2215 15.2772 32.6138 15.3672 33.0671 15.3672C33.5204 15.3672 33.9127 15.2772 34.2439 15.0971C34.5782 14.9139 34.8354 14.6615 35.0155 14.34C35.1955 14.0185 35.2856 13.6519 35.2856 13.2404V6.93713Z" fill="#4F535E"/>
</svg>
