<svg width="165" height="50" fill="none" xmlns="http://www.w3.org/2000/svg"><path d="M85.334 15.985c-.094 6.965 6.614 10.852 11.668 13.162 5.193 2.372 6.937 3.892 6.917 6.012-.04 3.245-4.142 4.677-7.982 4.733-6.699.098-10.593-1.697-13.69-3.055l-2.413 10.596c3.107 1.344 8.86 2.516 14.825 2.567 14.002 0 23.163-6.486 23.212-16.543.055-12.762-18.813-13.47-18.684-19.174.045-1.73 1.804-3.575 5.659-4.045 1.907-.237 7.174-.418 13.144 2.162l2.344-10.252C117.123 1.051 112.996 0 107.858 0c-13.18 0-22.45 6.574-22.524 15.985zM142.853.883c-2.557 0-4.712 1.4-5.673 3.548l-20.002 44.816h13.992l2.784-7.22h17.099l1.615 7.22H165L154.238.883h-11.385zm1.957 13.065l4.038 18.161h-11.059l7.021-18.16zM68.37.883L57.34 49.247h13.333L81.697.883H68.37zm-19.725 0L34.767 33.801l-5.614-27.99c-.659-3.124-3.26-4.928-6.148-4.928H.317L0 2.288c4.657.948 9.949 2.478 13.155 4.114 1.962 1 2.522 1.874 3.166 4.25l10.632 38.595h14.091L62.647.883H48.645z" fill="#656777"/></svg>